<?xml version="1.0" encoding="UTF-8" standalone="no"?>
<!-- Created with Inkscape (http://www.inkscape.org/) -->

<svg
   width="210mm"
   height="297mm"
   viewBox="0 0 210 297"
   version="1.1"
   id="svg1"
   inkscape:version="1.3.2 (091e20e, 2023-11-25, custom)"
   sodipodi:docname="Logo.svg"
   xmlns:inkscape="http://www.inkscape.org/namespaces/inkscape"
   xmlns:sodipodi="http://sodipodi.sourceforge.net/DTD/sodipodi-0.dtd"
   xmlns="http://www.w3.org/2000/svg"
   xmlns:svg="http://www.w3.org/2000/svg">
  <sodipodi:namedview
     id="namedview1"
     pagecolor="#ffffff"
     bordercolor="#000000"
     borderopacity="0.25"
     inkscape:showpageshadow="2"
     inkscape:pageopacity="0.0"
     inkscape:pagecheckerboard="0"
     inkscape:deskcolor="#d1d1d1"
     inkscape:document-units="mm"
     inkscape:zoom="0.73139029"
     inkscape:cx="396.50513"
     inkscape:cy="462.81719"
     inkscape:window-width="1920"
     inkscape:window-height="1017"
     inkscape:window-x="-8"
     inkscape:window-y="-8"
     inkscape:window-maximized="1"
     inkscape:current-layer="layer1" />
  <defs
     id="defs1">
    <rect
       x="150.3985"
       y="259.77922"
       width="801.21381"
       height="432.05386"
       id="rect16" />
    <rect
       x="62.893917"
       y="303.53151"
       width="1134.825"
       height="401.97416"
       id="rect10" />
  </defs>
  <g
     inkscape:label="Slānis 1"
     inkscape:groupmode="layer"
     id="layer1">
    <text
       xml:space="preserve"
       transform="matrix(0.26458333,0,0,0.26458333,-30.387333,47.751523)"
       id="text16"
       style="font-size:160px;white-space:pre;shape-inside:url(#rect16);fill:#ffffff;fill-opacity:1;stroke:#3fbbff;stroke-width:18.89763804;stroke-linejoin:bevel;stroke-dasharray:none;stroke-opacity:0.8;paint-order:stroke markers fill"><tspan
         x="150.39844"
         y="405.75215"
         id="tspan1">WROBO</tspan></text>
    <rect
       style="fill:#ffffff;fill-opacity:1;stroke:#3fbbff;stroke-width:4.99999;stroke-linejoin:bevel;stroke-dasharray:none;stroke-opacity:0.8;paint-order:stroke markers fill"
       id="rect17"
       width="49.922047"
       height="16.278929"
       x="86.820953"
       y="99.844093" />
    <rect
       style="fill:#ffffff;fill-opacity:1;stroke:#3fbbff;stroke-width:4.99999;stroke-linejoin:bevel;stroke-dasharray:none;stroke-opacity:0.8;paint-order:stroke markers fill"
       id="rect18"
       width="75.244827"
       height="18.087698"
       x="74.159561"
       y="75.606575" />
    <rect
       style="fill:#ffffff;fill-opacity:1;stroke:#3fbbff;stroke-width:4.99999;stroke-linejoin:bevel;stroke-dasharray:none;stroke-opacity:0.8;paint-order:stroke markers fill"
       id="rect19"
       width="95.503036"
       height="28.578562"
       x="63.668701"
       y="41.239948" />
    <rect
       style="fill:#ffffff;fill-opacity:1;stroke:#3fbbff;stroke-width:4.99999;stroke-linejoin:round;stroke-dasharray:none;stroke-opacity:0.8;paint-order:markers fill stroke"
       id="rect20"
       width="1.8087697"
       height="10.852619"
       x="57.518875"
       y="50.645554" />
    <rect
       style="fill:#ffffff;fill-opacity:1;stroke:#3fbbff;stroke-width:4.99999;stroke-linejoin:round;stroke-dasharray:none;stroke-opacity:0.8;paint-order:normal"
       id="rect21"
       width="2.5322776"
       height="10.12911"
       x="163.15103"
       y="51.730816" />
    <circle
       style="fill:#ffffff;fill-opacity:1;stroke:#3fbbff;stroke-width:4.4;stroke-linejoin:bevel;stroke-dasharray:none;stroke-opacity:0.8;paint-order:stroke markers fill"
       id="path23"
       cx="87.363579"
       cy="56.252739"
       r="5.6071858" />
    <path
       style="fill:#ffffff;fill-opacity:1;stroke:#3fbbff;stroke-width:4.99999;stroke-linejoin:bevel;stroke-dasharray:none;stroke-opacity:0.8;paint-order:stroke markers fill"
       d="M 100.92935,40.516442 115.03776,10.852619"
       id="path24" />
    <path
       style="fill:#ffffff;fill-opacity:1;stroke:#3fbbff;stroke-width:4.99999;stroke-linejoin:bevel;stroke-dasharray:none;stroke-opacity:0.8;paint-order:stroke markers fill"
       d="M 111.78197,41.23995 123.71985,15.917174"
       id="path25" />
    <path
       style="fill:#ffffff;fill-opacity:1;stroke:#3fbbff;stroke-width:4.99999;stroke-linejoin:bevel;stroke-dasharray:none;stroke-opacity:0.8;paint-order:stroke markers fill"
       d="m 113.95249,12.661388 10.85262,5.42631"
       id="path26" />
    <circle
       style="fill:#ffffff;fill-opacity:1;stroke:#3fbbff;stroke-width:4.99999;stroke-linejoin:bevel;stroke-dasharray:none;stroke-opacity:0.8;paint-order:stroke markers fill"
       id="path27"
       cx="121.00669"
       cy="8.5012178"
       r="6.3306942" />
    <path
       style="fill:#ffffff;fill-opacity:1;stroke:#3fbbff;stroke-width:0;stroke-linejoin:round;stroke-dasharray:none;stroke-opacity:0.8;paint-order:normal"
       d="m 240.63759,209.86109 v -53.33627 l 91.07358,0.0561 c 80.08224,0.0493 91.57547,0.3156 95.23222,2.20658 3.79509,1.96252 4.26593,1.95877 5.38611,-0.0429 1.10579,-1.97593 9.55818,-2.19341 85.24599,-2.19341 h 84.01849 v 53.32311 53.3231 H 421.11579 240.63759 Z m 99.12445,32.68523 c 7.53209,-1.89661 16.69452,-9.63282 19.98279,-16.87227 5.3306,-11.73591 2.30011,-26.90906 -7.17194,-35.9087 -11.54964,-10.97361 -28.62206,-11.22264 -41.03391,-0.59857 -7.20093,6.16374 -10.68193,13.80296 -10.68193,23.442 0,9.61185 3.53419,17.41324 10.56113,23.31272 9.11319,7.65098 16.97295,9.48805 28.34386,6.62482 z m 157.99628,-0.56829 c 8.70255,-3.07044 14.24602,-7.91074 18.24063,-15.92688 15.00285,-30.1068 -18.85131,-60.31317 -46.7213,-41.68707 -16.37552,10.94412 -18.87346,35.69972 -5.00384,49.59014 9.15488,9.16858 21.71163,12.17753 33.48451,8.02381 z"
       id="path33"
       transform="scale(0.26458333)" />
    <path
       style="fill:#ffffff;fill-opacity:1;stroke:#3fbbff;stroke-width:0;stroke-linejoin:round;stroke-dasharray:none;stroke-opacity:0.8;paint-order:normal"
       d="m 240.63759,209.86527 v -53.3321 l 91.04631,0.0378 c 80.33297,0.0333 91.53886,0.2925 95.23221,2.20241 3.82721,1.97912 4.29109,1.97665 5.41339,-0.0288 1.10579,-1.97593 9.55818,-2.19341 85.24599,-2.19341 h 84.01849 v 53.32311 53.3231 H 421.11579 240.63759 Z m 104.84363,30.28941 c 10.92635,-5.61895 16.86392,-15.45243 16.8124,-27.8438 -0.039,-9.37599 -3.63317,-17.08491 -10.8429,-23.25617 -20.01513,-17.13221 -50.65373,-2.8852 -50.65373,23.55407 0,23.2094 24.15789,38.10169 44.68423,27.5459 z m 151.3618,1.96543 c 19.29848,-5.80799 28.33339,-27.27143 19.19727,-45.60524 -11.65183,-23.38219 -45.52283,-23.48294 -57.14017,-0.16996 -9.08856,18.23835 -0.32456,39.7992 18.57653,45.70134 7.67963,2.39807 11.59399,2.413 19.36637,0.0739 z"
       id="path34"
       transform="scale(0.26458333)" />
    <ellipse
       style="fill:#ffffff;fill-opacity:1;stroke:#3fbbff;stroke-width:2.58561;stroke-linejoin:round;stroke-dasharray:none;stroke-opacity:0.8;paint-order:normal"
       id="path44"
       ry="9.9929752"
       rx="9.9929743"
       cy="55.167484"
       cx="123.90071" />
    <path
       style="fill:#ffffff;fill-opacity:1;stroke:#3fbbff;stroke-width:0;stroke-linejoin:round;stroke-dasharray:none;stroke-opacity:0.8;paint-order:normal"
       d="m 240.63759,209.87427 v -53.32311 h 90.99063 c 77.48368,0 91.56902,0.2991 94.88697,2.01488 3.43248,1.775 4.09543,1.775 5.56856,0 1.43987,-1.73495 13.33106,-2.01488 85.59121,-2.01488 h 83.91902 v 53.32311 53.3231 H 421.11579 240.63759 Z m 245.47322,37.7525 c 9.74118,-4.45966 16.31884,-10.71524 20.74567,-19.72984 3.2664,-6.65151 3.81478,-9.43888 3.81478,-19.38992 0,-9.95105 -0.54838,-12.73841 -3.81478,-19.38993 -7.17315,-14.6071 -21.83119,-23.54433 -38.67615,-23.58145 -29.29103,-0.0645 -49.39699,27.64499 -40.87682,56.33547 3.97698,13.39193 17.12037,25.53643 31.28933,28.91133 7.88073,1.87712 19.41382,0.55454 27.51797,-3.15566 z m -146.65138,-6.38776 c 6.55268,-1.81969 14.02024,-8.34221 17.61246,-15.38353 3.74774,-7.34618 3.74774,-19.14721 0,-26.49339 -13.7197,-26.89284 -53.84823,-19.3764 -56.00863,10.49093 -0.75986,10.50484 1.57486,16.97418 8.69558,24.0949 8.13785,8.13786 17.96463,10.5502 29.70059,7.29109 z"
       id="path45"
       transform="scale(0.26458333)" />
    <path
       style="fill:#65c9ff;fill-opacity:1;stroke:#3fbbff;stroke-width:0;stroke-linejoin:round;stroke-dasharray:none;stroke-opacity:0.8;paint-order:normal"
       d="m 240.63759,209.87427 v -53.32311 h 90.8584 c 67.5136,0 91.77919,0.41955 94.44218,1.63288 2.77784,1.26568 4.17178,1.26568 6.19844,0 1.95235,-1.21926 23.74599,-1.63288 86.03602,-1.63288 h 83.42135 v 53.32311 53.3231 H 421.11579 240.63759 Z m 247.0834,36.76671 c 13.60971,-6.52867 22.03638,-19.03728 23.28244,-34.56061 1.44591,-18.01285 -7.21729,-33.55632 -23.26539,-41.74268 -8.02291,-4.0926 -10.4333,-4.67147 -19.45181,-4.67147 -9.01851,0 -11.42891,0.57887 -19.45182,4.67147 -36.14081,18.43593 -28.74836,72.39037 11.03463,80.53714 8.64012,1.76933 18.4446,0.27892 27.85195,-4.23385 z M 339.1865,241.12785 c 2.86491,-0.85835 7.47644,-3.4297 10.24784,-5.71413 13.58036,-11.19408 13.58036,-34.4158 0,-45.60987 -9.48567,-7.8189 -20.50574,-9.20581 -31.70662,-3.99039 -15.13912,7.04916 -20.9943,24.16365 -13.65746,39.92032 6.20211,13.31973 20.75155,19.69784 35.11624,15.39407 z"
       id="path46"
       transform="scale(0.26458333)" />
    <path
       style="fill:#65c9ff;fill-opacity:1;stroke:#3fbbff;stroke-width:0;stroke-linejoin:round;stroke-dasharray:none;stroke-opacity:0.8;paint-order:normal"
       d="m 237.14721,268.59101 -4.00198,-4.17718 -0.14581,-54.27315 -0.1458,-54.27315 4.1602,-4.44359 4.1602,-4.44359 h 66.04385 c 42.04014,0 66.04385,0.48506 66.04385,1.33459 0,0.73403 2.30725,2.55264 5.12722,4.04135 l 5.12723,2.70676 -71.78111,0.28326 -71.7811,0.28326 80.66829,1.04039 c 44.36756,0.57221 86.93903,1.25524 94.60325,1.51784 7.66424,0.26259 13.20164,0.0112 12.30533,-0.55866 -1.01133,-0.64299 -0.43182,-1.04405 1.52739,-1.05704 1.73637,-0.0115 2.86609,0.44979 2.51052,1.02513 -0.35558,0.57533 3.76116,0.83851 9.14831,0.58484 5.38715,-0.25367 43.9421,-0.93196 85.67769,-1.50731 l 75.88287,-1.0461 -84.46335,-0.22238 -84.46336,-0.22238 2.12111,-4.10177 2.12111,-4.10178 h 81.73222 81.73223 l 4.36998,4.50868 4.36999,4.50869 v 16.60314 c 0,9.59391 -0.5772,16.95987 -1.36726,17.44815 -0.82666,0.5109 -1.36726,10.24174 -1.36726,24.61066 0,14.36892 0.5406,24.09976 1.36726,24.61066 0.75199,0.46476 1.36726,6.22541 1.36726,12.80145 0,11.72974 -0.0855,12.03928 -4.50869,16.32641 l -4.50867,4.36999 H 420.96468 241.1492 Z m 274.54949,-5.05166 c -49.8195,-0.19883 -131.34232,-0.19883 -181.16182,0 -49.81951,0.19883 -9.05809,0.3615 90.58091,0.3615 99.639,0 140.40041,-0.16267 90.58091,-0.3615 z m -31.82718,-13.4462 c 20.05689,-5.95626 31.48537,-21.26782 31.48537,-42.18322 0,-4.66764 -0.97952,-11.36135 -2.17672,-14.87491 -2.97086,-8.71903 -12.64557,-19.09714 -22.15693,-23.76785 -10.22292,-5.02015 -26.13616,-5.41191 -35.9931,-0.8861 -8.65262,3.97284 -17.10215,11.92929 -21.46663,20.21392 -3.20875,6.09085 -3.6475,8.48444 -3.64996,19.91202 -0.002,10.98778 0.49292,13.93689 3.21472,19.14162 10.2619,19.62321 30.33941,28.50381 50.74325,22.44452 z M 344.64929,239.08394 c 7.85926,-4.27755 13.45183,-11.75708 14.28785,-19.10865 0.58499,-5.14411 0.56658,-5.17161 -0.57036,-0.85233 -3.18388,12.0956 -16.00603,22.19826 -28.17372,22.19826 -8.03881,0 -18.66998,-5.70588 -23.43064,-12.57551 -3.47544,-5.01506 -3.91454,-6.8233 -3.91454,-16.12021 0,-8.91267 0.50884,-11.2226 3.41815,-15.51691 1.87998,-2.77497 5.87921,-6.72145 8.88718,-8.76994 4.66794,-3.17898 6.87097,-3.72455 15.03985,-3.72455 8.2776,0 10.35616,0.53041 15.38298,3.92546 6.22304,4.20296 10.98111,10.77804 12.82502,17.72267 1.05404,3.96978 1.09471,3.8924 0.53608,-1.01996 -1.87832,-16.51706 -23.37411,-27.56315 -40.06788,-20.58977 -19.05215,7.95854 -24.39569,33.77463 -10.138,48.97939 8.90507,9.49659 24.21662,11.82076 35.91803,5.45205 z m -4.68502,-7.43054 c 7.77515,-3.76388 11.42131,-9.84372 11.42131,-19.04462 0,-9.20089 -3.64616,-15.28073 -11.42131,-19.04461 -7.38244,-3.57378 -12.15998,-3.57378 -19.54242,0 -7.77514,3.76388 -11.4213,9.84372 -11.4213,19.04461 0,9.15232 3.5944,15.1934 11.31331,19.01421 7.28365,3.60535 12.24969,3.61304 19.65041,0.0304 z"
       id="path47"
       transform="scale(0.26458333)" />
    <path
       style="fill:#65c9ff;fill-opacity:1;stroke:#3fbbff;stroke-width:0;stroke-linejoin:round;stroke-dasharray:none;stroke-opacity:0.8;paint-order:normal"
       d="m 237.13343,268.57664 -4.01576,-4.19155 -0.14252,-54.25878 -0.14253,-54.25878 4.1707,-4.44359 4.1707,-4.44359 h 66.04385 c 42.04014,0 66.04385,0.48506 66.04385,1.33459 0,0.73403 2.30725,2.55264 5.12722,4.04135 l 5.12723,2.70676 -69.61628,0.0604 c -38.28895,0.0332 -69.35991,0.30635 -69.04658,0.60692 1.2588,1.20754 229.0191,1.99453 289.06135,0.99879 l 64.26118,-1.06569 -82.41247,-0.2398 -82.41247,-0.2398 2.12111,-4.10177 2.12111,-4.10178 h 81.73222 81.73223 l 4.45095,4.59221 4.45093,4.59221 -0.81662,17.62575 c -1.07921,23.29328 -1.08209,60.9554 -0.006,76.93174 l 0.86354,12.81919 -4.47146,4.61337 -4.47144,4.61336 H 421.10337 241.1492 Z m 239.69817,-5.03703 c -30.6437,-0.2051 -80.78792,-0.2051 -111.43162,0 -30.64369,0.20511 -5.57158,0.37293 55.71581,0.37293 61.28739,0 86.3595,-0.16782 55.71581,-0.37293 z m 8.79802,-15.69255 c 9.82877,-4.49976 16.89995,-10.91846 21.36292,-19.39172 3.23032,-6.13301 3.66558,-8.5017 3.66558,-19.94833 0,-11.47497 -0.43113,-13.80777 -3.69872,-20.01374 -4.20841,-7.99278 -12.13733,-15.33509 -21.39632,-19.81333 -9.08675,-4.39495 -25.71901,-4.47154 -34.47092,-0.15874 -15.67341,7.72359 -24.54127,20.37671 -25.56387,36.47582 -0.74625,11.74832 1.05604,18.96003 6.88597,27.55366 12.31711,18.15608 33.60389,24.27481 53.21536,15.29638 z m -144.11276,-7.282 c 8.80653,-3.67869 18.18181,-15.17692 18.01226,-22.09096 -0.033,-1.34594 -0.85484,-0.22302 -1.82629,2.49538 -0.97144,2.71839 -3.10207,6.8185 -4.73472,9.11134 -3.8947,5.4696 -15.58736,11.2404 -22.77505,11.2404 -8.52334,0 -18.85916,-5.76679 -23.85562,-13.31008 -2.29525,-3.4652 -4.17319,-5.62744 -4.17319,-4.80498 0,3.34227 9.31642,13.52692 15.0074,16.40599 7.21227,3.64869 16.97676,4.03089 24.34521,0.95291 z m -1.75273,-8.81477 c 7.98329,-3.86465 12.13411,-11.57365 11.34637,-21.07276 -0.71485,-8.62018 -3.948,-13.48002 -11.43649,-17.1905 -7.02435,-3.48051 -11.93755,-3.48051 -18.9619,0 -7.48849,3.71048 -10.72164,8.57032 -11.43649,17.1905 -0.78133,9.42179 3.33823,17.13389 11.24232,21.04643 7.03346,3.48157 12.09431,3.48849 19.24619,0.0263 z m -33.41958,-34.7563 c 1.8368,-2.71194 5.80069,-6.60685 8.80866,-8.65534 4.66794,-3.17898 6.87097,-3.72455 15.03985,-3.72455 8.2776,0 10.35616,0.53041 15.38298,3.92546 5.96626,4.02953 10.66379,10.30827 12.65169,16.91032 0.68668,2.28053 1.17224,2.78549 1.24388,1.29358 0.171,-3.56071 -4.49907,-12.0213 -8.98626,-16.28011 -11.47196,-10.88806 -30.9836,-10.3636 -41.75409,1.12232 -5.42382,5.7841 -7.96199,13.00589 -7.73376,22.00464 l 0.20051,7.90566 0.90346,-9.78559 c 0.65145,-7.056 1.83502,-11.161 4.24308,-14.71639 z"
       id="path48"
       transform="scale(0.26458333)" />
    <path
       style="fill:#65c9ff;fill-opacity:1;stroke:#3fbbff;stroke-width:0;stroke-linejoin:round;stroke-dasharray:none;stroke-opacity:0.8;paint-order:normal"
       d="m 237.13343,268.57682 -4.01576,-4.19136 -0.22545,-54.25896 -0.22545,-54.25897 4.25362,-4.44359 4.25363,-4.44359 h 66.04385 c 37.9796,0 66.04385,0.52028 66.04385,1.22438 0,0.6734 2.61489,2.51872 5.81085,4.10069 l 5.81085,2.87633 -66.88175,0.001 c -36.78497,6e-4 -66.6254,0.23183 -66.31207,0.51386 1.20729,1.08668 208.76517,1.80752 267.86884,0.93031 l 62.21029,-0.92333 -74.20892,-0.25988 -74.20891,-0.25988 2.12111,-4.10177 2.12111,-4.10178 h 81.73222 81.73223 l 4.19041,4.44359 4.19043,4.44359 -0.21996,54.31902 -0.21998,54.31901 -3.95804,4.13131 -3.95805,4.13131 H 421.11579 241.1492 Z m 208.25121,-5.03555 c -13.34787,-0.22385 -35.18983,-0.22385 -48.5377,0 -13.34787,0.22384 -2.42688,0.40699 24.26885,0.40699 26.69573,0 37.61671,-0.18315 24.26885,-0.40699 z m 40.5304,-15.82487 c 3.90865,-1.78944 9.34443,-5.21834 12.07951,-7.61978 5.01388,-4.40224 12.08499,-16.6453 11.88513,-20.57818 -0.0594,-1.16834 -1.03695,0.50089 -2.17242,3.7094 -1.13547,3.2085 -5.07375,9.12626 -8.75174,13.15058 -8.83557,9.66752 -17.77607,13.6453 -30.66929,13.6453 -28.79873,0 -48.35971,-27.42274 -39.38435,-55.21334 3.08689,-9.55799 13.1039,-20.48241 22.60793,-24.6559 15.87166,-6.96971 34.85205,-3.05178 46.72918,9.64583 7.70051,8.23247 10.35552,14.38829 11.7915,27.33944 l 1.13699,10.25444 -0.34707,-10.99045 c -0.54969,-17.40723 -7.9641,-28.64929 -24.46848,-37.10019 -5.93081,-3.03682 -8.96427,-3.65773 -18.0657,-3.69782 -9.27636,-0.0409 -12.0209,0.51359 -18.06571,3.64964 -15.35838,7.96791 -23.35388,19.51256 -24.64386,35.58307 -2.69775,33.6083 29.93427,56.79742 60.33838,42.87796 z M 346.21,237.78926 c 5.62775,-3.95533 12.01187,-11.77468 12.01187,-14.71228 0,-0.78801 -1.77496,1.36607 -3.94435,4.78686 -4.74341,7.47958 -15.44179,13.45738 -24.08446,13.45738 -8.64266,0 -19.34104,-5.9778 -24.08445,-13.45738 -2.1694,-3.42079 -3.94436,-5.53172 -3.94436,-4.69096 0,3.26942 9.19079,13.31684 15.03985,16.44165 8.79218,4.69715 20.80083,3.94147 29.0059,-1.82527 z m 140.11342,-1.40814 c 3.96121,-2.44903 8.11784,-6.63426 10.6391,-10.7123 3.66271,-5.92428 4.13792,-7.89523 4.13792,-17.16181 0,-9.26659 -0.47521,-11.23754 -4.13792,-17.16182 -13.10078,-21.19001 -44.25181,-21.19001 -57.35258,0 -3.66271,5.92428 -4.13793,7.89523 -4.13793,17.16182 0,9.26658 0.47522,11.23753 4.13793,17.16181 9.86551,15.9571 30.55586,20.70179 46.71348,10.7123 z m -144.69428,-5.63153 c 13.16474,-9.74911 13.04614,-26.61653 -0.25645,-36.47309 -5.35309,-3.96637 -17.00616,-3.96637 -22.35925,0 -12.18684,9.02984 -13.51962,24.46004 -2.96399,34.31545 1.76382,1.64681 4.74479,3.64032 6.62439,4.43001 4.86376,2.04346 14.72352,0.86147 18.9553,-2.27237 z m -35.47395,-33.68495 c 1.71865,-2.78083 5.3582,-6.57368 8.08788,-8.42855 2.72969,-1.85487 4.34516,-3.37249 3.58994,-3.37249 -0.75522,0 -3.7462,1.95609 -6.64663,4.34687 -6.95276,5.73106 -10.37317,13.46953 -10.16524,22.99831 l 0.16409,7.51993 0.92257,-9.00401 c 0.58135,-5.6737 2.07835,-10.87409 4.04739,-14.06006 z m 50.23868,0.97317 c -2.84111,-5.44108 -8.89193,-10.8852 -14.87701,-13.38531 -5.18539,-2.16606 -14.91717,-2.67561 -19.13453,-1.00187 -1.28794,0.51114 2.14096,0.92934 7.61977,0.92934 8.57025,0 10.75239,0.5234 15.62457,3.74766 3.1147,2.06121 7.05896,6.17303 8.76502,9.13737 3.50211,6.08505 5.1225,6.54863 2.00218,0.57281 z"
       id="path49"
       transform="scale(0.26458333)" />
    <path
       style="fill:#65c9ff;fill-opacity:1;stroke:#3fbbff;stroke-width:0;stroke-linejoin:round;stroke-dasharray:none;stroke-opacity:0.8;paint-order:normal"
       d="m 236.80403,268.2595 -4.36999,-4.50868 v -54.01525 -54.01525 l 4.50868,-4.36998 4.50869,-4.36999 h 65.79122 c 36.18517,0 65.9963,0.53215 66.24697,1.18256 0.25066,0.65041 2.91682,2.46902 5.92479,4.04135 l 5.46903,2.85879 -63.4636,0.0604 c -34.90499,0.0332 -63.12566,0.39838 -62.71261,0.81143 1.03573,1.03573 304.5585,1.11703 305.59366,0.0819 0.45809,-0.45808 -28.81826,-0.83287 -65.05854,-0.83287 H 433.3509 l 2.12111,-4.10177 2.12111,-4.10178 h 81.73222 81.73223 l 4.19041,4.44359 4.19043,4.44359 -0.21996,54.31902 -0.21998,54.31901 -3.95804,4.13131 -3.95805,4.13131 H 421.1282 241.17402 Z m 188.75535,-4.68394 c -2.44397,-0.3033 -6.44321,-0.3033 -8.88718,0 -2.44398,0.30329 -0.44436,0.55144 4.44359,0.55144 4.88795,0 6.88757,-0.24815 4.44359,-0.55144 z m 37.77913,-13.37626 c -11.81317,-2.35369 -18.49979,-5.88512 -25.47835,-13.45596 -7.12687,-7.73173 -9.84291,-14.0154 -11.3184,-26.18545 l -1.16035,-9.57081 0.39627,9.59284 c 0.49981,12.09944 4.08717,20.4207 12.37756,28.71109 8.28306,8.28306 18.46326,12.67351 29.44736,12.69986 3.28188,0.008 1.94215,-0.55502 -4.26409,-1.79157 z m 14.17672,-0.21277 c -0.94,-0.3793 -2.47816,-0.3793 -3.41815,0 -0.93999,0.37929 -0.17091,0.68962 1.70907,0.68962 1.87998,0 2.64907,-0.31033 1.70908,-0.68962 z m 11.02795,-3.3941 c 9.60653,-5.03445 18.32238,-15.32367 20.67978,-24.41283 0.48759,-1.87998 -0.62957,-0.41844 -2.48259,3.24788 -3.99332,7.90108 -11.96941,16.48498 -18.62889,20.04849 -2.63197,1.40838 -4.28351,2.58789 -3.67008,2.62112 0.61344,0.0332 2.45924,-0.64386 4.10178,-1.50466 z m -159.4216,-5.27472 c -5.04433,-0.6457 -10.49032,-2.56331 -15.03984,-5.29575 -6.72511,-4.03908 -6.86859,-4.06861 -2.51441,-0.51757 6.07306,4.95288 11.78124,6.99288 19.30936,6.9008 5.86708,-0.0718 5.78561,-0.12224 -1.75511,-1.08748 z m 16.4225,-2.92332 c 4.75457,-2.93848 12.68904,-12.58305 12.66486,-15.39449 -0.007,-0.82716 -1.53326,1.03231 -3.39144,4.13217 -3.21572,5.36455 -6.737,8.39988 -14.37,12.38688 -1.87998,0.98198 -2.56786,1.78922 -1.52864,1.79385 1.03923,0.005 4.02058,-1.30865 6.62522,-2.91841 z m 136.52524,0.3327 c 20.61727,-9.36383 26.07498,-36.80259 10.50836,-52.83104 -6.78505,-6.98634 -14.33045,-10.13683 -24.36482,-10.17323 -28.23088,-0.10242 -43.21382,31.16154 -25.84621,53.93166 8.07284,10.58404 26.90138,14.88662 39.70267,9.07261 z m -143.56524,-6.83494 c 14.30913,-6.49888 17.31234,-23.76198 6.00506,-34.51834 -7.2372,-6.88458 -14.21402,-8.01276 -22.82861,-3.69148 -8.14732,4.0869 -11.53043,8.8111 -12.33947,17.23092 -0.77162,8.03044 1.732,13.69979 8.20342,18.5763 7.27176,5.47961 12.79156,6.11234 20.9596,2.4026 z m -32.51652,-4.18134 c -0.9179,-1.46978 -1.93369,-2.40755 -2.25731,-2.08393 -0.586,0.58601 2.3937,4.75627 3.39841,4.75627 0.29029,0 -0.22321,-1.20255 -1.1411,-2.67234 z m -4.22565,-19.54562 c -0.32589,-1.69198 -0.59253,-0.30763 -0.59253,3.07633 0,3.38397 0.26664,4.76832 0.59253,3.07634 0.32589,-1.69199 0.32589,-4.46069 0,-6.15267 z m 209.20684,-3.39935 c -0.31427,-2.07832 -0.5798,-0.70243 -0.59007,3.05754 -0.0103,3.75996 0.24687,5.4604 0.5714,3.77876 0.32454,-1.68165 0.33294,-4.75798 0.0187,-6.8363 z m -155.07866,-7.51869 c -2.98402,-5.10935 -13.21681,-13.35131 -16.57432,-13.34973 -1.25753,5.9e-4 0.41753,1.33949 3.72234,2.97532 3.49778,1.73134 7.75013,5.44473 10.17583,8.8861 4.91148,6.96797 6.34064,7.76278 2.67615,1.48831 z m -41.60587,-8.63902 c 2.70705,-1.83949 4.14763,-3.34453 3.20129,-3.34453 -2.26631,0 -13.96059,11.73412 -13.93097,13.97843 0.0127,0.95978 1.3246,-0.28769 2.9154,-2.77216 1.5908,-2.48447 5.10723,-6.02225 7.81428,-7.86174 z m 122.74038,-7.36364 c 6.67243,-7.42135 13.44515,-11.61668 22.01139,-13.63487 3.85606,-0.90847 4.29041,-1.24408 1.73031,-1.33695 -5.34836,-0.194 -16.97623,5.88746 -23.24724,12.15848 -5.92543,5.92543 -10.92185,15.08781 -10.80898,19.82141 0.0359,1.50399 0.94409,-0.12016 2.01828,-3.60921 1.14445,-3.71727 4.57931,-9.26473 8.29624,-13.39886 z m 69.56904,7.36422 c -5.41843,-11.07488 -21.33837,-22.61603 -30.78749,-22.31936 -2.53466,0.0796 -2.08743,0.42082 1.73031,1.32027 13.22778,3.11643 27.05602,15.50542 30.12223,26.98707 0.90492,3.38854 1.85189,5.09615 2.10438,3.7947 0.25249,-1.30146 -1.17375,-5.70366 -3.16943,-9.78268 z m -172.62182,-5.67482 c -1.68164,-0.32454 -4.75797,-0.33294 -6.83629,-0.0187 -2.07832,0.31427 -0.70243,0.5798 3.05753,0.59007 3.75996,0.0103 5.46041,-0.24687 3.77876,-0.5714 z m 135.995,-17.63797 c -0.45434,-0.45433 -1.63359,-0.5029 -2.62058,-0.10794 -1.09071,0.43647 -0.76674,0.76045 0.82605,0.82605 1.44131,0.0594 2.24886,-0.26378 1.79453,-0.71811 z"
       id="path50"
       transform="scale(0.26458333)" />
    <path
       style="fill:#65c9ff;fill-opacity:1;stroke:#3fbbff;stroke-width:0;stroke-linejoin:round;stroke-dasharray:none;stroke-opacity:0.8;paint-order:normal"
       d="m 392.40335,154.58928 c 0,-0.32704 0.60004,-2.17284 1.33342,-4.10178 1.2676,-3.33404 1.83911,-3.50715 11.57879,-3.50715 8.94565,0 10.13591,0.28526 9.3825,2.2486 -0.52829,1.3767 0.11984,2.96718 1.67149,4.10178 2.19668,1.60625 0.76886,1.85317 -10.71592,1.85317 -7.28765,0 -13.25028,-0.26758 -13.25028,-0.59462 z"
       id="path51"
       transform="scale(0.26458333)" />
    <path
       style="fill:#65c9ff;fill-opacity:1;stroke:#3fbbff;stroke-width:0;stroke-linejoin:round;stroke-dasharray:none;stroke-opacity:0.8;paint-order:normal"
       d="m 236.80403,268.2595 -4.36999,-4.50868 v -54.01525 -54.01525 l 4.50868,-4.36998 4.50869,-4.36999 h 65.73774 c 54.50808,0 66.00765,0.32521 67.31775,1.90379 0.869,1.04708 3.55922,2.73907 5.97827,3.75996 3.82842,1.61569 -3.30741,1.94757 -55.07751,2.56164 -33.59887,0.39853 3.58058,0.70517 85.45369,0.70479 84.00584,-4e-4 119.22819,-0.29695 83.78942,-0.70547 l -61.14004,-0.70479 1.70449,-3.41814 1.70448,-3.41815 81.91903,-0.35268 81.91903,-0.35268 4.38358,4.24873 4.38357,4.24873 -0.23915,54.49963 -0.23916,54.49962 -3.98212,4.15643 -3.9821,4.15642 H 421.1282 241.17402 Z M 460.7663,249.67522 c -4.88795,-1.28886 -10.73298,-3.33742 -12.98896,-4.55237 -4.29836,-2.31486 -12.36343,-10.31342 -16.20298,-16.06937 -1.24025,-1.8593 -2.23976,-2.7822 -2.22112,-2.05089 0.0833,3.26914 10.03014,14.49241 15.88514,17.92367 6.54247,3.83414 16.7042,7.17149 21.68059,7.1204 1.50398,-0.0154 -1.26472,-1.08259 -6.15267,-2.37144 z m 17.40407,0.39076 c -0.45434,-0.45432 -1.63358,-0.5029 -2.62058,-0.10794 -1.0907,0.43647 -0.76673,0.76045 0.82606,0.82606 1.44131,0.0594 2.24885,-0.26379 1.79452,-0.71812 z m 10.70523,-4.03478 c 2.50251,-2.00491 2.45888,-2.03337 -0.76412,-0.49842 -4.18522,1.9932 -4.96088,2.62474 -3.22372,2.62474 0.7336,0 2.52813,-0.95684 3.98784,-2.12632 z m 15.49056,-14.04323 c 2.33981,-3.64629 4.23013,-7.49866 4.20069,-8.56081 -0.0294,-1.06216 -0.91851,0.0586 -1.97573,2.49062 -1.05722,2.432 -4.87855,7.62758 -8.49185,11.54574 -5.25315,5.69636 -5.70973,6.52578 -2.27848,4.139 2.36012,-1.64171 6.20553,-5.96825 8.54537,-9.61455 z m -169.50163,10.20845 c -0.31333,-0.27063 -3.95366,-0.83667 -8.08962,-1.25787 -4.67973,-0.47658 -6.48712,-0.32703 -4.7854,0.39596 2.62028,1.11324 14.05203,1.87854 12.87502,0.86191 z m 147.14721,-3.44355 c 13.8648,-6.29797 21.91112,-22.63318 18.54892,-37.65704 -1.99856,-8.93052 -10.21975,-19.05123 -18.54892,-22.83468 -7.28388,-3.30864 -20.16715,-3.30864 -27.45103,0 -8.32916,3.78345 -16.55036,13.90416 -18.54892,22.83468 -2.43614,10.88583 -0.02,20.32656 7.34275,28.69113 7.22594,8.2091 14.32051,11.47421 24.93169,11.47421 5.03877,0 10.33382,-0.96766 13.72551,-2.5083 z m -163.44038,0.56557 c 0,-0.34954 -1.38435,-1.30638 -3.07633,-2.12631 -2.95414,-1.43158 -2.97091,-1.40633 -0.42231,0.63552 2.78957,2.2349 3.49864,2.53704 3.49864,1.49079 z m 34.59272,-7.90841 c 1.80791,-2.44476 3.71401,-5.36793 4.23577,-6.49592 0.52177,-1.12798 -0.15655,-0.51272 -1.50736,1.36726 -3.14779,4.38091 -7.03205,8.25403 -11.34321,11.31069 -3.39779,2.40908 -3.39211,2.41112 0.95477,0.34326 2.4051,-1.14414 5.85211,-4.08052 7.66003,-6.52529 z m -14.11177,-0.001 c 8.7418,-4.46685 11.64964,-9.12569 11.64964,-18.66469 0,-9.9736 -4.47288,-16.51965 -13.69407,-20.04126 -5.34004,-2.03938 -7.02817,-2.13411 -11.9188,-0.66884 -19.66308,5.8912 -21.71959,31.45036 -3.20704,39.85834 7.26814,3.30102 9.90925,3.22664 17.17027,-0.48355 z m 89.01581,-10.73957 c -0.72047,-1.80116 -1.34896,-2.55608 -1.39662,-1.67759 -0.11578,2.13376 1.47695,6.18207 2.16249,5.49652 0.29926,-0.29925 -0.0454,-2.01777 -0.76587,-3.81893 z M 301.74449,208.87484 c -0.34666,-1.3303 -0.65309,-0.57292 -0.68095,1.68305 -0.0279,2.25598 0.25576,3.34441 0.63029,2.41873 0.37452,-0.92568 0.39732,-2.77148 0.0507,-4.10178 z m 124.44008,-2.06097 c -0.32703,-1.70075 -0.60703,-0.6312 -0.62221,2.37677 -0.0152,3.00797 0.25241,4.39949 0.59462,3.09227 0.34221,-1.30722 0.35463,-3.76829 0.0276,-5.46904 z m 84.75055,-0.67355 c -0.34665,-1.33029 -0.65308,-0.57292 -0.68094,1.68306 -0.0279,2.25597 0.25575,3.3444 0.63029,2.41872 0.37452,-0.92568 0.39731,-2.77148 0.0506,-4.10178 z M 355.90647,197.4178 c -2.60698,-4.48876 -11.0287,-12.1542 -13.35336,-12.1542 -0.75522,0 0.86026,1.51762 3.58994,3.37249 2.72969,1.85487 6.30666,5.54647 7.94883,8.20355 3.6803,5.95487 5.22268,6.44629 1.81459,0.57816 z m -47.77741,-3.26701 3.80331,-5.46904 -4.20043,4.73376 c -2.31024,2.60357 -4.20043,5.32099 -4.20043,6.03873 0,0.71773 0.1787,1.0486 0.39712,0.73527 0.21842,-0.31333 2.10861,-3.03075 4.20043,-6.03872 z M 437.1198,181.1386 c 6.51548,-7.24677 11.10148,-10.21762 20.22835,-13.10407 3.00797,-0.9513 4.37257,-1.77079 3.03242,-1.82109 -11.05319,-0.41491 -30.78642,17.08105 -33.05189,29.30461 -0.53718,2.89838 -0.12598,2.40682 1.40159,-1.67547 1.189,-3.17749 4.96429,-8.89428 8.38953,-12.70398 z m 70.90699,10.32319 c -4.28457,-11.21898 -22.13641,-25.50351 -31.53701,-25.23499 -1.50398,0.0429 -0.27345,0.85643 2.73452,1.80773 3.00797,0.9513 7.38864,2.73036 9.73483,3.95348 6.2141,3.23955 16.64236,15.42737 18.49717,21.61819 0.88121,2.94119 1.90008,5.04974 2.26415,4.68566 0.36409,-0.36408 -0.39806,-3.43761 -1.69366,-6.83007 z m -174.7574,-8.50793 c -1.31598,-0.34391 -3.46941,-0.34391 -4.7854,0 -1.31599,0.3439 -0.23927,0.62527 2.3927,0.62527 2.63198,0 3.70869,-0.28137 2.3927,-0.62527 z"
       id="path52"
       transform="scale(0.26458333)" />
    <path
       style="fill:#65c9ff;fill-opacity:1;stroke:#3fbbff;stroke-width:0;stroke-linejoin:round;stroke-dasharray:none;stroke-opacity:0.8;paint-order:normal"
       d="m 236.80403,268.2595 -4.36999,-4.50868 v -54.01525 -54.01525 l 4.50868,-4.36998 4.50869,-4.36999 h 65.73774 c 54.50808,0 66.00765,0.32521 67.31775,1.90379 0.869,1.04708 3.55922,2.73907 5.97827,3.75996 3.90894,1.64967 0.4434,1.9361 -31.15048,2.57464 -19.55181,0.39516 7.82756,0.71327 60.84303,0.70693 53.01547,-0.006 79.93338,-0.18589 59.81758,-0.39899 -20.1158,-0.21309 -36.57418,-0.65607 -36.57418,-0.98441 0,-0.32833 0.71402,-2.16408 1.58673,-4.07944 l 1.58672,-3.48248 h 82.2315 82.2315 l 4.3754,4.51428 4.37541,4.51427 -0.0442,53.91092 -0.0442,53.91092 -4.33126,4.46872 -4.33124,4.46872 H 421.11579 241.17402 Z m 220.54412,-19.28002 c -3.00797,-0.95129 -7.38864,-2.73036 -9.73483,-3.95348 -4.56259,-2.37858 -16.92672,-15.34635 -16.92672,-17.75312 0,-0.79599 -0.37274,-1.07451 -0.82832,-0.61894 -1.21346,1.21346 7.19773,12.44059 11.95573,15.95833 5.44128,4.02291 14.87238,8.23458 18.26866,8.15827 1.50399,-0.0338 0.27345,-0.83976 -2.73452,-1.79106 z m 31.48314,-3.29242 c -0.42097,-0.42096 -1.52421,-8.7e-4 -2.45167,0.93354 -1.34027,1.35033 -1.18323,1.50737 0.76539,0.76538 1.34842,-0.51344 2.10725,-1.27796 1.68628,-1.69892 z M 331.90214,241.746 c -1.31599,-0.34391 -3.46942,-0.34391 -4.78541,0 -1.31599,0.3439 -0.23927,0.62527 2.3927,0.62527 2.63198,0 3.70869,-0.28137 2.39271,-0.62527 z m 170.71656,-7.46677 c 2.7289,-3.71751 4.58039,-7.14038 4.1144,-7.60636 -0.46599,-0.46599 -0.84725,-0.19598 -0.84725,0.60001 0,0.796 -2.82924,4.59406 -6.2872,8.44015 -3.45797,3.84609 -5.30945,6.61768 -4.1144,6.1591 1.19504,-0.45858 4.40554,-3.87538 7.13445,-7.5929 z m -23.63944,5.57612 c 6.50313,-1.80582 15.24814,-9.56395 19.04845,-16.89886 3.99583,-7.71225 3.97165,-21.2328 -0.0519,-29.00061 -9.89569,-19.10473 -34.81302,-24.18054 -50.93966,-10.37674 -8.12481,6.95454 -11.46303,14.21394 -11.46303,24.92787 0,10.68493 3.40881,18.1358 11.34587,24.79936 8.99453,7.55136 20.20427,9.84119 32.06023,6.54898 z m -161.09153,-1.26864 c -0.46476,-0.752 -1.57778,-1.35784 -2.47339,-1.34633 -0.97844,0.0126 -0.8098,0.54995 0.4225,1.34633 2.62667,1.69748 3.1,1.69748 2.05089,0 z m 33.67225,-5.12723 c 1.70069,-2.16855 1.65233,-2.21691 -0.51622,-0.51621 -1.31598,1.03207 -2.3927,2.10878 -2.3927,2.3927 0,1.1253 1.12277,0.40102 2.90892,-1.87649 z m -10.9257,-2.48929 c 9.48118,-4.90291 13.03973,-17.6928 7.76291,-27.90094 -7.33825,-14.19605 -26.22046,-15.49527 -35.52889,-2.44461 -4.50861,6.32118 -4.46194,17.71244 0.0988,24.10698 6.35848,8.91519 17.59264,11.44834 27.66722,6.23857 z m 15.95628,-5.40862 c -0.42096,-0.42097 -1.18548,0.33786 -1.69893,1.68628 -0.74199,1.94862 -0.58494,2.10566 0.76539,0.76539 0.9344,-0.92746 1.3545,-2.03071 0.93354,-2.45167 z M 301.73099,209.6179 c -0.43647,-1.0907 -0.76045,-0.76672 -0.82606,0.82606 -0.0594,1.44131 0.26379,2.24885 0.71812,1.79452 0.45432,-0.45432 0.5029,-1.63359 0.10794,-2.62058 z m 53.92603,-12.41357 c -1.35033,-1.34028 -1.50738,-1.18323 -0.76539,0.76539 0.51345,1.34842 1.27797,2.10724 1.69893,1.68628 0.42096,-0.42096 8.6e-4,-1.52421 -0.93354,-2.45167 z m 151.78278,-6.76967 c -1.57347,-3.25035 -5.762,-8.66605 -9.30785,-12.03488 l -6.44701,-6.12514 6.99141,7.85261 c 3.84528,4.31893 7.71707,10.05137 8.60398,12.73875 0.88692,2.68739 1.92931,4.56941 2.31645,4.18228 0.38713,-0.38714 -0.5835,-3.36326 -2.15698,-6.61362 z m -153.3197,3.92803 c 0,-0.25944 -1.38435,-1.64379 -3.07634,-3.07633 l -3.07633,-2.60461 2.60461,3.07633 c 2.44769,2.891 3.54806,3.69877 3.54806,2.60461 z m -8.20356,-7.0482 c -0.93615,-1.12799 -2.35961,-2.05089 -3.16325,-2.05089 -0.80365,0 -0.26686,0.90333 1.19285,2.00741 3.42973,2.59411 4.0995,2.60889 1.9704,0.0435 z m 92.33768,-7.51992 c 6.60223,-7.41327 6.61391,-7.44236 0.82383,-2.05089 -3.23037,3.00797 -6.52331,6.69957 -7.31763,8.20355 -0.79432,1.50399 -1.16504,2.42689 -0.82383,2.05089 0.34123,-0.376 3.63415,-4.0676 7.31763,-8.20355 z m -105.66845,3.19626 c -0.94,-0.37929 -2.47816,-0.37929 -3.41815,0 -0.93999,0.3793 -0.17091,0.68963 1.70907,0.68963 1.87998,0 2.64907,-0.31033 1.70908,-0.68963 z m 127.396,-16.72443 c -0.71233,-0.73615 -12.69679,3.90901 -13.51947,5.24013 -0.36283,0.58707 2.64801,-0.23047 6.69078,-1.81676 4.04275,-1.58629 7.11566,-3.12681 6.82869,-3.42337 z m 30.86423,5.94139 c 0,-1.08308 -11.24242,-6.02797 -13.67259,-6.01378 -1.12799,0.007 1.33308,1.46251 5.46904,3.23539 4.13596,1.77288 7.67374,3.29215 7.86174,3.37615 0.18799,0.084 0.34181,-0.18499 0.34181,-0.59776 z"
       id="path53"
       transform="scale(0.26458333)" />
    <path
       style="fill:#65c9ff;fill-opacity:1;stroke:#3fbbff;stroke-width:0;stroke-linejoin:round;stroke-dasharray:none;stroke-opacity:0.8;paint-order:normal"
       d="m 418.38127,144.85274 c 0,-0.82538 34.10138,-73.447292 34.83207,-74.177981 0.24462,-0.244622 3.50734,1.107157 7.25049,3.003954 3.74314,1.896796 7.18829,3.066151 7.65587,2.598566 2.39989,-2.399886 -0.51432,4.420122 -15.13994,35.431391 l -15.99009,33.90442 h -9.3042 c -5.11731,0 -9.3042,-0.34216 -9.3042,-0.76035 z"
       id="path54"
       transform="scale(0.26458333)" />
    <path
       style="fill:#65c9ff;fill-opacity:1;stroke:#3fbbff;stroke-width:0;stroke-linejoin:round;stroke-dasharray:none;stroke-opacity:0.8;paint-order:normal"
       d="m 399.77563,138.43498 c 3.98929,-8.84898 31.57182,-66.790876 34.3809,-72.223038 l 2.04287,-3.950482 7.53953,3.697731 c 4.14674,2.033752 7.36704,4.429769 7.15623,5.324484 -0.21082,0.894714 -8.07413,17.963896 -17.47404,37.931515 l -17.09074,36.30476 -9.89538,0.0466 -9.89539,0.0466 z"
       id="path55"
       transform="scale(0.26458333)" />
    <path
       style="fill:#65c9ff;fill-opacity:1;stroke:#3fbbff;stroke-width:0;stroke-linejoin:round;stroke-dasharray:none;stroke-opacity:0.8;paint-order:normal"
       d="m 236.80403,268.2595 -4.36999,-4.50868 v -54.01525 -54.01525 l 4.50868,-4.36998 4.50869,-4.36999 h 65.73774 c 54.50808,0 66.00765,0.32521 67.31775,1.90379 0.869,1.04708 3.55922,2.73907 5.97827,3.75996 4.04751,1.70815 2.76275,1.91358 -16.11063,2.57606 -11.27989,0.39594 7.79338,0.70357 42.38503,0.68363 34.59165,-0.0199 54.74163,-0.20793 44.77773,-0.41776 -9.9639,-0.20982 -18.11618,-0.64232 -18.11618,-0.96111 0,-0.31878 0.71402,-2.14673 1.58673,-4.06209 l 1.58672,-3.48248 h 82.2315 82.2315 l 4.36998,4.50868 4.36999,4.50869 v 54.01524 54.01525 l -4.50869,4.36998 -4.50867,4.36999 H 420.97709 241.17402 Z m 216.44235,-20.7642 c -5.85164,-2.37661 -10.26149,-5.52147 -15.38167,-10.96937 -3.94796,-4.20064 -7.17811,-7.27486 -7.17811,-6.83158 0,0.44327 2.92252,3.9464 6.49448,7.78473 6.06013,6.51203 17.52684,13.41083 22.21796,13.36715 1.12799,-0.0105 -1.64071,-1.51842 -6.15266,-3.35093 z m -122.02787,-5.71233 c -0.93999,-0.37929 -2.47816,-0.37929 -3.41815,0 -0.93999,0.3793 -0.17091,0.68963 1.70907,0.68963 1.87998,0 2.64907,-0.31033 1.70908,-0.68963 z m 147.58626,-2.06967 c 7.26557,-2.17682 16.67039,-10.74466 19.59718,-17.85317 3.32645,-8.07914 3.13308,-20.85259 -0.42031,-27.76431 -8.02578,-15.61102 -27.16002,-22.5852 -42.68437,-15.55788 -13.04988,5.90721 -19.63443,15.95756 -19.63443,29.96907 0,22.636 21.0137,37.83607 43.14193,31.20629 z m 20.95808,-2.15204 c 1.95717,-2.06798 4.21081,-4.99049 5.0081,-6.49448 0.7973,-1.50398 0.91115,-2.11925 0.25302,-1.36726 -0.65813,0.75199 -3.31521,3.67451 -5.9046,6.49448 -2.58941,2.81997 -4.30458,5.12722 -3.81151,5.12722 0.49309,0 2.49783,-1.69198 4.45499,-3.75996 z m -158.11621,-7.57633 c 9.32265,-5.60096 11.88307,-18.81964 5.6168,-28.99785 -8.18316,-13.29178 -29.13557,-11.76177 -35.65979,2.604 -3.19012,7.02435 -3.20234,10.9865 -0.0552,17.90489 2.96077,6.50876 5.27827,8.60536 12.13722,10.98034 6.06153,2.09888 11.5992,1.33074 17.96101,-2.49138 z m 12.47346,-35.62224 c 0,-0.25944 -1.38435,-1.64379 -3.07634,-3.07633 l -3.07633,-2.60461 2.60461,3.07633 c 2.44769,2.891 3.54806,3.69877 3.54806,2.60461 z m 150.67259,-8.67855 c -1.51732,-2.11128 -4.78421,-5.68449 -7.25978,-7.94046 -2.8059,-2.55703 -2.08059,-1.34277 1.92596,3.2242 3.53485,4.0293 6.42698,7.97726 6.42698,8.77325 0,0.79599 0.37475,1.07251 0.83278,0.61448 0.45804,-0.45804 -0.40864,-2.5602 -1.92594,-4.67147 z m -67.20894,-5.20594 c 5.6989,-6.49755 5.73877,-6.59918 0.80447,-2.05089 -2.85534,2.63197 -5.83964,6.01594 -6.63178,7.51992 -0.79213,1.50399 -1.15414,2.42689 -0.80447,2.05089 0.34967,-0.376 3.33397,-3.75996 6.63178,-7.51992 z m 53.26225,-8.16845 c 0,-0.93539 -6.93197,-4.32397 -10.93807,-5.34688 -1.87998,-0.48003 -0.34182,0.62135 3.41815,2.44751 8.08471,3.92663 7.51992,3.70887 7.51992,2.89937 z m -36.23236,-3.5516 c 3.00797,-1.44653 3.93087,-2.24712 2.05088,-1.77908 -3.87138,0.96383 -10.97855,4.52717 -8.88718,4.4558 0.75199,-0.0257 3.82833,-1.23019 6.8363,-2.67672 z"
       id="path56"
       transform="scale(0.26458333)" />
    <path
       style="fill:#65c9ff;fill-opacity:1;stroke:#3fbbff;stroke-width:0;stroke-linejoin:round;stroke-dasharray:none;stroke-opacity:0.8;paint-order:normal"
       d="m 236.80403,268.2595 -4.36999,-4.50868 v -54.01525 -54.01525 l 4.50868,-4.36998 4.50869,-4.36999 h 65.17404 65.17404 l 6.37226,4.04116 6.37227,4.04117 -10.76837,0.45248 c -5.9226,0.24887 8.30489,0.42996 31.61666,0.40243 23.31177,-0.0275 39.15488,-0.23603 35.20692,-0.46332 -3.94796,-0.2273 -7.17811,-0.6598 -7.17811,-0.96112 0,-0.30131 0.71402,-2.11496 1.58673,-4.03032 l 1.58672,-3.48248 h 82.2315 82.2315 l 4.36998,4.50868 4.36999,4.50869 v 54.01524 54.01525 l -4.50869,4.36998 -4.50867,4.36999 H 420.97709 241.17402 Z m 221.22775,-18.73472 c -1.12798,-0.72896 -2.66615,-1.32539 -3.41814,-1.32539 -0.752,0 -0.44436,0.59643 0.68363,1.32539 1.12798,0.72896 2.66615,1.32538 3.41814,1.32538 0.752,0 0.44436,-0.59642 -0.68363,-1.32538 z m -5.58297,-1.86569 c -0.31333,-0.27413 -2.10786,-1.23098 -3.98784,-2.12631 -3.223,-1.53495 -3.26663,-1.50649 -0.76412,0.49842 2.17804,1.74498 6.62828,3.2695 4.75196,1.62789 z m -13.55865,-9.75601 c -3.32112,-3.38397 -6.34603,-6.15267 -6.72202,-6.15267 -0.376,0 2.03364,2.7687 5.35476,6.15267 3.32111,3.38396 6.34602,6.15266 6.72202,6.15266 0.37599,0 -2.03365,-2.7687 -5.35476,-6.15266 z m 43.12454,0.18202 c 12.17514,-5.66949 18.40211,-15.67823 18.40211,-29.57809 0,-19.48817 -12.59304,-32.04938 -32.13058,-32.04938 -11.06401,0 -18.48453,3.14788 -24.64587,10.45509 -6.12323,7.26202 -7.81278,12.81288 -7.25599,23.83893 0.41991,8.31559 1.14819,10.8058 4.57889,15.65653 4.87877,6.89818 9.21966,10.29227 16.46395,12.87293 8.09045,2.88209 16.73258,2.46171 24.58749,-1.19601 z m 19.17176,-2.57473 4.01576,-4.44359 -4.44359,4.01576 c -4.14206,3.74326 -5.07205,4.87142 -4.01576,4.87142 0.2353,0 2.23492,-1.99961 4.44359,-4.44359 z m -160.71762,-4.94003 c 17.8871,-9.56418 10.67642,-38.47044 -9.59647,-38.47044 -15.67067,0 -25.35788,13.72082 -19.85687,28.12499 4.44538,11.64006 18.0772,16.42822 29.45334,10.34545 z m 164.1725,-45.07737 c -0.73739,-1.37784 -2.41481,-3.37745 -3.7276,-4.44359 -1.477,-1.19951 -1.14684,-0.24455 0.86611,2.50515 3.59105,4.90538 4.9375,5.8175 2.86149,1.93844 z m -68.31129,-3.98933 c 1.70069,-2.16855 1.65233,-2.21691 -0.51623,-0.51622 -2.27751,1.78615 -3.00179,2.90892 -1.87648,2.90892 0.28391,0 1.36063,-1.07671 2.39271,-2.3927 z M 488.8756,170.8639 c -1.45971,-1.10407 -3.30551,-1.9856 -4.10177,-1.95896 -0.79627,0.0266 0.0904,0.92775 1.97039,2.00244 4.4289,2.53179 5.50712,2.50979 2.13138,-0.0435 z"
       id="path57"
       transform="scale(0.26458333)" />
    <path
       style="fill:#65c9ff;fill-opacity:1;stroke:#3fbbff;stroke-width:0;stroke-linejoin:round;stroke-dasharray:none;stroke-opacity:0.8;paint-order:normal"
       d="m 236.80403,268.2595 -4.36999,-4.50868 v -54.01525 -54.01525 l 4.50868,-4.36998 4.50869,-4.36999 h 65.20099 65.20098 l 6.96747,4.28712 c 6.60289,4.0628 7.76653,4.30269 22.23849,4.58458 9.63154,0.1876 10.85298,0.10021 3.30753,-0.23666 -6.57994,-0.29376 -11.96352,-0.77859 -11.96352,-1.07742 0,-0.29882 0.60003,-2.12153 1.33342,-4.05047 1.2676,-3.33404 1.83911,-3.50715 11.57878,-3.50715 8.94566,0 10.13592,0.28526 9.38252,2.2486 -1.3346,3.4779 3.36522,5.95495 11.29857,5.95495 6.59174,0 7.21273,-0.28972 8.79174,-4.10177 l 1.69901,-4.10178 h 82.28508 82.2851 l 4.36998,4.50868 4.36999,4.50869 v 54.01524 54.01525 l -4.50869,4.36998 -4.50867,4.36999 H 420.97709 241.17402 Z m 221.22775,-18.73472 c -1.12798,-0.72896 -2.66615,-1.32539 -3.41814,-1.32539 -0.752,0 -0.44436,0.59643 0.68363,1.32539 1.12798,0.72896 2.66615,1.32538 3.41814,1.32538 0.752,0 0.44436,-0.59642 -0.68363,-1.32538 z m -5.46903,-1.90461 c 0,-0.29554 -0.95486,-0.90376 -2.12191,-1.3516 -1.21675,-0.46691 -1.76557,-0.23769 -1.28656,0.53735 0.80294,1.29918 3.40847,1.92161 3.40847,0.81425 z m -9.57082,-5.34711 c 0,-0.22848 -2.30725,-2.53573 -5.12722,-5.12722 l -5.12722,-4.7118 4.71181,5.12722 c 4.38563,4.77231 5.54263,5.75587 5.54263,4.7118 z m 42.12817,-5.99329 c 3.47873,-2.15073 8.18978,-6.56375 10.46902,-9.80671 3.85567,-5.48594 4.14406,-6.73625 4.14406,-17.96605 0,-11.22981 -0.28839,-12.48012 -4.14406,-17.96606 -2.27924,-3.24296 -7.12547,-7.73955 -10.76942,-9.99243 -9.62489,-5.95061 -23.44206,-5.95061 -33.06694,0 -3.64395,2.25288 -8.48789,6.7462 -10.76431,9.98515 -3.57817,5.09112 -4.19976,7.30967 -4.5878,16.37476 -0.38258,8.93732 0.0283,11.37845 2.78276,16.53087 8.9377,16.71898 30.09683,22.6335 45.93669,12.84047 z m 15.98034,-0.42758 c 1.3611,-1.50399 2.16708,-2.73452 1.79109,-2.73452 -0.376,0 -1.79725,1.23053 -3.15835,2.73452 -1.36109,1.50398 -2.16707,2.73452 -1.79108,2.73452 0.376,0 1.79725,-1.23054 3.15834,-2.73452 z m -160.94028,-5.33892 c 5.43879,-2.79232 9.46924,-8.38877 9.97243,-13.84714 0.83016,-9.00519 -0.18522,-12.44285 -5.29243,-17.91804 -4.27774,-4.58597 -6.3078,-5.67859 -11.67463,-6.28351 -13.21786,-1.48984 -23.32359,7.23831 -23.32359,20.1442 0,15.96173 15.85962,25.32767 30.31822,17.90449 z m 147.26769,-60.28952 c -0.46476,-0.75199 -1.57779,-1.35783 -2.4734,-1.34632 -0.97842,0.0126 -0.80978,0.54995 0.42251,1.34632 2.62667,1.69749 3.09999,1.69749 2.05089,0 z"
       id="path58"
       transform="scale(0.26458333)" />
    <path
       style="fill:#65c9ff;fill-opacity:1;stroke:#3fbbff;stroke-width:0;stroke-linejoin:round;stroke-dasharray:none;stroke-opacity:0.8;paint-order:normal"
       d="m 236.80403,268.2595 -4.36999,-4.50868 v -54.01525 -54.01525 l 4.50868,-4.36998 4.50869,-4.36999 h 65.20099 65.20098 l 6.66625,4.10178 c 3.66642,2.25597 8.15527,4.10177 9.97522,4.10177 2.4211,0 3.72443,-1.10062 4.85724,-4.10177 1.53054,-4.05486 1.66544,-4.10178 11.79346,-4.10178 9.21167,0 10.17995,0.24952 9.59836,2.47349 -0.84606,3.23537 4.56253,5.73006 12.423,5.73006 5.29144,0 6.10348,-0.43702 7.62147,-4.10177 l 1.69901,-4.10178 82.89511,4e-5 82.89511,4e-5 3.75997,4.71231 3.75996,4.71232 -0.0401,53.73797 -0.0401,53.73797 -4.04243,4.44359 -4.04242,4.44359 H 421.40327 241.17402 Z m 206.1879,-26.08723 c 0,-0.28392 -1.07671,-1.36064 -2.3927,-2.39271 -2.16855,-1.70069 -2.21691,-1.65233 -0.51622,0.51622 1.78614,2.27751 2.90892,3.00179 2.90892,1.87649 z m 42.34888,-6.05063 c 17.19158,-10.56782 20.25686,-36.17833 6.03262,-50.40257 -11.03406,-11.03406 -28.51481,-12.65901 -41.77578,-3.88332 -8.30428,5.49551 -12.32638,12.77982 -13.11092,23.74477 -0.85758,11.98586 1.0631,17.70353 8.52666,25.38297 10.62629,10.93366 27.43451,13.08354 40.32742,5.15815 z m 16.61767,-1.2949 c 1.70069,-2.16855 1.65233,-2.21691 -0.51622,-0.51621 -2.27751,1.78614 -3.00179,2.90892 -1.87648,2.90892 0.28391,0 1.36063,-1.07672 2.3927,-2.39271 z m -162.9732,-3.71085 c 7.28739,-3.76845 11.03359,-9.74265 11.02793,-17.58657 -0.0157,-21.66439 -24.32681,-29.15619 -37.38992,-11.52218 -3.80844,5.14104 -3.80844,16.06225 0,21.20329 6.75454,9.11801 17.68091,12.39462 26.36199,7.90546 z"
       id="path59"
       transform="scale(0.26458333)" />
    <path
       style="fill:#65c9ff;fill-opacity:1;stroke:#3fbbff;stroke-width:0;stroke-linejoin:round;stroke-dasharray:none;stroke-opacity:0.8;paint-order:normal"
       d="m 236.80403,268.2595 -4.36999,-4.50868 v -54.01525 -54.01525 l 4.50868,-4.36998 4.50869,-4.36999 h 65.24224 65.24224 l 7.26795,4.10178 c 9.0984,5.13482 11.22783,5.13482 13.88314,0 2.07382,-4.01032 2.35224,-4.10178 12.48672,-4.10178 8.56654,0 10.23152,0.34946 9.59297,2.01347 -1.17552,3.06336 4.43246,6.19008 11.10235,6.19008 5.13597,0 6.21776,-0.53729 8.24114,-4.09313 l 2.32911,-4.09313 82.89871,-0.009 82.8987,-0.009 3.58043,4.69418 3.58043,4.69418 v 53.48738 53.48738 l -3.75996,4.71232 -3.75997,4.71231 -180.55179,4e-5 -180.5518,4e-5 z m 240.69662,-28.81349 c 19.39487,-5.837 28.52949,-27.34118 19.39802,-45.66566 -11.57761,-23.23322 -45.59686,-23.3344 -57.14018,-0.16996 -9.08538,18.23199 -0.23056,39.81384 18.77483,45.75989 7.43313,2.32554 11.43864,2.34153 18.96733,0.0757 z m -138.69432,-8.24932 c 7.32661,-3.81203 10.31896,-8.46811 10.85968,-16.89756 0.39405,-6.14308 -0.10323,-8.80885 -2.29432,-12.2991 -7.68827,-12.24688 -23.77598,-13.10546 -33.30776,-1.77759 -4.93021,5.85922 -5.31064,18.1686 -0.74106,23.97788 6.52124,8.29041 17.30572,11.25124 25.48346,6.99637 z"
       id="path60"
       transform="scale(0.26458333)" />
    <path
       style="fill:#65c9ff;fill-opacity:1;stroke:#3fbbff;stroke-width:0;stroke-linejoin:round;stroke-dasharray:none;stroke-opacity:0.8;paint-order:normal"
       d="m 379.41439,150.67988 -5.46904,-3.0159 9.39072,-0.40797 c 5.1649,-0.22439 9.67543,-0.12327 10.0234,0.22471 0.34798,0.34798 -0.0541,1.91591 -0.89345,3.4843 -1.94741,3.63878 -6.10055,3.54804 -13.05163,-0.28514 z"
       id="path61"
       transform="scale(0.26458333)" />
    <path
       style="fill:#65c9ff;fill-opacity:1;stroke:#3fbbff;stroke-width:0;stroke-linejoin:round;stroke-dasharray:none;stroke-opacity:0.8;paint-order:normal"
       d="m 236.79537,268.50417 -4.36133,-4.26401 v -54.25992 -54.25992 l 4.50868,-4.36998 4.50869,-4.36999 h 65.24224 65.24224 l 7.26795,4.10178 c 9.0984,5.13482 11.22783,5.13482 13.88314,0 2.06977,-4.00249 2.36849,-4.10178 12.34044,-4.10178 9.34947,0 10.21933,0.23564 10.21933,2.76836 0,3.41457 5.47713,5.7277 12.2184,5.16014 3.73909,-0.3148 5.26454,-1.27156 6.64631,-4.16854 l 1.79339,-3.75996 h 83.25861 83.25862 l 3.48773,4.57265 3.48773,4.57265 v 53.62708 53.62709 l -3.58043,4.69418 -3.58043,4.69418 H 421.8967 241.15671 Z m 240.03829,-28.77942 c 8.75375,-2.20422 19.97045,-13.1199 22.24386,-21.64693 1.92109,-7.20559 1.05827,-18.54413 -1.83723,-24.14342 -4.30791,-8.33057 -14.13903,-15.48026 -23.82374,-17.32581 -6.5389,-1.24608 -17.27303,1.2199 -23.63423,5.42954 -9.91638,6.56234 -15.48995,20.89351 -13.0936,33.66717 1.31337,7.00087 8.16065,16.41588 14.55078,20.00734 10.19947,5.73242 15.4768,6.55969 25.59416,4.01211 z m -137.78067,-9.00191 c 14.63577,-7.35327 14.63577,-28.87485 0,-36.22811 -13.39294,-6.72885 -28.68518,2.92786 -28.68518,18.11405 0,11.02785 9.16279,20.50464 19.82525,20.50464 2.25598,0 6.24295,-1.07576 8.85993,-2.39058 z"
       id="path62"
       transform="scale(0.26458333)" />
    <path
       style="fill:#65c9ff;fill-opacity:1;stroke:#3fbbff;stroke-width:0;stroke-linejoin:round;stroke-dasharray:none;stroke-opacity:0.8;paint-order:normal"
       d="m 236.54771,268.46362 -4.11367,-4.30456 v -54.21937 -54.21937 l 4.50868,-4.36998 4.50869,-4.36999 h 65.08269 65.08269 l 7.7976,4.10178 c 4.28868,2.25597 8.64222,4.10177 9.67455,4.10177 1.0323,0 2.83142,-1.8458 3.99804,-4.10177 2.06977,-4.00249 2.36849,-4.10178 12.34044,-4.10178 9.01058,0 10.21933,0.29748 10.21933,2.51505 0,2.89502 5.27252,5.69809 10.66059,5.66757 4.48309,-0.0254 6.205,-1.08164 8.32446,-5.10629 l 1.62005,-3.07633 h 83.23316 83.23315 l 3.5397,4.20668 3.53968,4.20668 v 54.48056 54.48055 l -3.53968,4.20668 -3.5397,4.20668 H 421.68976 240.66138 Z m 246.15591,-31.27538 c 2.70092,-1.37791 7.13509,-4.96736 9.85374,-7.97656 13.87917,-15.36258 8.73743,-39.9014 -10.40726,-49.66829 -7.344,-3.74663 -20.42892,-3.72358 -27.82382,0.049 -19.04235,9.71468 -24.15601,34.29471 -10.32066,49.60878 10.58447,11.71575 25.39665,14.7729 38.698,7.98706 z m -143.65063,-6.4654 c 9.97884,-5.01354 13.80357,-17.325 8.5705,-27.58768 -9.45164,-18.53581 -37.25568,-11.46562 -37.25568,9.47362 0,11.02785 9.16279,20.50464 19.82525,20.50464 2.25598,0 6.24295,-1.07576 8.85993,-2.39058 z"
       id="path63"
       transform="scale(0.26458333)" />
    <path
       style="fill:#65c9ff;fill-opacity:1;stroke:#3fbbff;stroke-width:0;stroke-linejoin:round;stroke-dasharray:none;stroke-opacity:0.8;paint-order:normal"
       d="m 236.15665,268.52581 -3.72261,-4.24237 v -54.53787 -54.53788 l 4.33087,-4.13881 4.33087,-4.13882 67.10841,0.49514 c 91.25817,0.67332 84.5777,0.46986 83.88407,2.55473 -0.32677,0.9822 -2.38917,2.11034 -4.58312,2.50698 -3.55156,0.64208 -3.68912,0.83999 -1.25446,1.8049 2.11927,0.8399 3.526,0.1393 6.25225,-3.11386 3.30532,-3.94416 4.09063,-4.1976 13.00655,-4.1976 8.49156,0 9.63069,0.31961 10.8385,3.04099 1.53819,3.46579 8.47185,5.90199 13.32842,4.68307 1.80175,-0.45221 3.98347,-2.37512 4.84826,-4.27313 l 1.57235,-3.45093 h 83.31058 83.31057 l 3.5397,4.20668 3.53968,4.20668 v 55.01329 55.01328 l -3.83478,3.67395 -3.83478,3.67395 H 421.00363 239.87927 Z m 246.64861,-31.38943 c 17.96593,-9.16553 22.86991,-33.83914 9.76793,-49.14586 -6.48323,-7.57418 -13.84775,-10.87042 -24.28696,-10.87042 -10.36766,0 -17.7985,3.29011 -24.12563,10.68194 -10.58621,12.3676 -10.72845,28.87616 -0.35325,40.99724 10.31368,12.04921 25.39975,15.27436 38.99791,8.3371 z m -140.42661,-8.62009 c 15.69616,-11.97204 4.70909,-38.92087 -14.60868,-35.83183 -11.52865,1.8435 -18.15509,10.24026 -17.06165,21.61985 1.56571,16.29471 18.80009,24.02859 31.67033,14.21198 z"
       id="path64"
       transform="scale(0.26458333)" />
    <path
       style="fill:#65c9ff;fill-opacity:1;stroke:#3fbbff;stroke-width:0;stroke-linejoin:round;stroke-dasharray:none;stroke-opacity:0.8;paint-order:normal"
       d="m 236.10799,268.9334 -3.67395,-3.83477 v -55.25785 -55.25785 l 4.44359,-3.79808 4.44359,-3.79809 64.26118,0.11585 c 35.34365,0.0637 69.69917,0.53075 76.3456,1.03785 6.64644,0.5071 12.37397,0.45353 12.72784,-0.11906 0.35387,-0.57258 5.14984,-1.04105 10.6577,-1.04105 8.8442,0 10.09733,0.31758 10.72507,2.71805 0.73881,2.82523 5.96203,5.4855 10.7703,5.4855 1.52932,0 4.50481,-1.8458 6.61221,-4.10177 l 3.83163,-4.10178 h 82.43762 82.43761 l 3.83478,3.67395 3.83478,3.67395 v 55.54602 55.54601 l -3.83478,3.67395 -3.83478,3.67395 H 420.95496 239.78194 Z m 244.48357,-30.99641 c 21.17183,-8.62208 26.02078,-38.70774 8.60532,-53.39222 -6.42651,-5.41875 -12.19838,-7.48472 -20.91065,-7.48472 -17.09575,0 -29.64323,11.33082 -31.69061,28.61772 -2.77019,23.38988 21.70605,41.33663 43.99594,32.25922 z m -141.56037,-7.89565 c 14.91029,-7.64561 14.39889,-28.69777 -0.8611,-35.44799 -17.56761,-7.77099 -34.28313,10.46306 -25.30841,27.60758 2.59722,4.96152 12.05171,10.91674 17.33138,10.91674 1.5613,0 5.53846,-1.38435 8.83813,-3.07633 z m 52.53563,-77.34456 c 0.38066,-0.61592 -1.12119,-0.85372 -3.33745,-0.52844 -2.21628,0.32527 -4.02958,0.82921 -4.02958,1.11986 0,1.04182 6.68954,0.5048 7.36703,-0.59142 z"
       id="path65"
       transform="scale(0.26458333)" />
    <path
       style="fill:#65c9ff;fill-opacity:1;stroke:#3fbbff;stroke-width:0;stroke-linejoin:round;stroke-dasharray:none;stroke-opacity:0.8;paint-order:normal"
       d="m 236.10799,268.9334 -3.67395,-3.83477 v -55.51945 -55.51945 l 4.29522,-3.6142 4.29522,-3.61419 87.29638,0.31831 c 81.96523,0.29887 87.34302,0.46526 88.0601,2.72455 0.92857,2.92568 9.10497,5.84275 12.95334,4.62133 1.53583,-0.48746 3.76969,-2.37778 4.96412,-4.20073 l 2.17172,-3.31445 h 82.82892 82.82892 l 3.83478,3.67395 3.83478,3.67395 v 55.54602 55.54601 l -3.83478,3.67395 -3.83478,3.67395 H 420.95496 239.78194 Z m 249.49228,-33.82935 c 3.22556,-2.26701 7.69788,-7.08699 9.93847,-10.71106 3.46701,-5.60776 4.06858,-7.94348 4.03871,-15.6812 -0.0709,-18.36638 -12.77129,-31.66447 -30.22186,-31.64412 -9.19755,0.0107 -15.29206,1.99662 -21.27611,6.93282 -14.89506,12.2868 -15.24256,36.21375 -0.70391,48.46705 7.27433,6.13086 11.77845,7.55808 22.53357,7.14017 8.37472,-0.3254 10.69289,-0.99077 15.69113,-4.50366 z m -146.79664,-4.91793 c 4.50495,-2.18081 6.70866,-4.3692 8.6052,-8.54537 3.26848,-7.19716 3.24831,-10.95077 -0.096,-17.85916 -6.7881,-14.02235 -27.06787,-14.47335 -34.3977,-0.76495 -5.30872,9.92847 -1.25706,22.27762 8.97006,27.34006 7.03722,3.48343 9.41987,3.45941 16.91843,-0.17058 z m 51.20702,-77.27499 c -0.93999,-0.37929 -2.47816,-0.37929 -3.41815,0 -0.93999,0.3793 -0.17091,0.68963 1.70907,0.68963 1.87998,0 2.64907,-0.31033 1.70908,-0.68963 z"
       id="path66"
       transform="scale(0.26458333)" />
    <path
       style="fill:#65c9ff;fill-opacity:1;stroke:#3fbbff;stroke-width:0;stroke-linejoin:round;stroke-dasharray:none;stroke-opacity:0.8;paint-order:normal"
       d="m 236.10799,268.9334 -3.67395,-3.83477 v -55.38519 -55.38519 l 3.85513,-3.69345 3.85513,-3.69345 87.17629,0.0696 87.1763,0.0696 3.13227,3.64147 c 4.42777,5.14761 12.29701,5.12305 16.06541,-0.0501 l 2.68914,-3.6916 h 82.87214 82.87213 l 3.83478,3.67395 3.83478,3.67395 v 55.54602 55.54601 l -3.83478,3.67395 -3.83478,3.67395 H 420.95496 239.78194 Z m 246.66123,-32.15992 c 19.47174,-10.27722 22.71174,-38.76692 5.97749,-52.56071 -12.50138,-10.30469 -31.19734,-9.45166 -42.60985,1.94413 -16.02503,16.00156 -10.93823,42.81932 9.84404,51.89815 6.85971,2.9967 19.86095,2.37471 26.78832,-1.28157 z m -144.20284,-6.47251 c 4.22445,-2.04502 6.59022,-4.41079 8.63524,-8.63523 4.34748,-8.9807 3.25809,-15.79999 -3.68704,-23.08002 -13.00662,-13.63377 -36.05653,-1.2323 -32.54085,17.50785 1.55334,8.28005 11.16783,16.80947 19.12947,16.97058 1.45456,0.0294 5.26299,-1.214 8.46318,-2.76318 z"
       id="path67"
       transform="scale(0.26458333)" />
    <path
       style="fill:#65c9ff;fill-opacity:1;stroke:#3fbbff;stroke-width:0;stroke-linejoin:round;stroke-dasharray:none;stroke-opacity:0.8;paint-order:normal"
       d="m 236.10799,268.9334 -3.67395,-3.83477 V 209.87427 154.6499 l 3.67395,-3.83477 3.67395,-3.83478 h 87.93241 c 56.3268,0 87.9324,0.4801 87.9324,1.33574 0,1.56853 4.89109,4.8402 9.11698,6.0984 2.15572,0.64183 4.25622,-0.25173 7.70042,-3.27578 l 4.73612,-4.15836 h 82.46386 82.46385 l 3.83478,3.67395 3.83478,3.67395 v 55.54602 55.54601 l -3.83478,3.67395 -3.83478,3.67395 H 420.95496 239.78194 Z m 242.77075,-30.60952 c 6.71273,-2.01118 16.65142,-11.67415 18.8457,-18.32286 0.89078,-2.69908 1.3809,-9.13158 1.08917,-14.29445 -0.68909,-12.19513 -5.38523,-19.46186 -16.08297,-24.88656 -18.89912,-9.5835 -40.73295,0.58104 -45.11239,21.00165 -5.18625,24.18268 16.96663,43.78084 41.26049,36.50222 z M 336.7953,231.25269 c 14.16816,-5.91984 17.08358,-23.50815 5.57204,-33.61541 -6.86948,-6.03149 -17.47908,-6.03149 -24.34855,0 -11.39042,10.00091 -8.64261,27.49717 5.27019,33.55721 5.36765,2.338 8.02261,2.34944 13.50632,0.0582 z"
       id="path68"
       transform="scale(0.26458333)" />
    <path
       style="fill:#65c9ff;fill-opacity:1;stroke:#3fbbff;stroke-width:0;stroke-linejoin:round;stroke-dasharray:none;stroke-opacity:0.8;paint-order:normal"
       d="m 236.10799,268.9334 -3.67395,-3.83477 V 209.87427 154.6499 l 3.67395,-3.83477 3.67395,-3.83478 h 87.18663 87.18663 l 3.41814,3.41815 c 4.61988,4.61986 11.50764,4.61986 15.84778,0 l 3.21119,-3.41815 h 82.74784 82.74783 l 3.83478,3.67395 3.83478,3.67395 v 55.54602 55.54601 l -3.83478,3.67395 -3.83478,3.67395 H 420.95496 239.78194 Z m 244.48357,-31.53749 c 6.55036,-2.99189 13.39181,-9.73878 16.48496,-16.25713 1.64031,-3.4567 2.11952,-7.44614 1.75693,-14.62663 -0.61221,-12.12328 -4.72198,-19.2139 -14.45132,-24.93293 -5.47081,-3.21582 -8.07147,-3.83554 -16.0959,-3.83554 -7.92432,0 -10.64578,0.63196 -15.81944,3.67351 -21.45328,12.61221 -20.53835,43.89871 1.60645,54.93393 8.6924,4.3316 18.47817,4.71715 26.51832,1.04479 z m -145.4753,-5.83154 c 17.55047,-5.86559 19.39477,-28.12991 3.02843,-36.5591 -1.64255,-0.84596 -5.77419,-1.53811 -9.18143,-1.53811 -4.97493,0 -7.14345,0.83277 -11.01106,4.22858 -11.47644,10.07644 -8.91871,25.82239 5.40457,33.27179 4.91398,2.55571 5.76857,2.59909 11.75949,0.59684 z"
       id="path69"
       transform="scale(0.26458333)" />
    <path
       style="fill:#65c9ff;fill-opacity:1;stroke:#3fbbff;stroke-width:0;stroke-linejoin:round;stroke-dasharray:none;stroke-opacity:0.8;paint-order:normal"
       d="m 236.10799,268.9334 -3.67395,-3.83477 v -55.38519 -55.38519 l 3.82901,-3.66843 3.82901,-3.66842 181.02288,-8.1e-4 181.02289,-8.1e-4 3.82985,3.66923 3.82986,3.66924 v 55.54602 55.54601 l -3.83478,3.67395 -3.83478,3.67395 H 420.95496 239.78194 Z M 477.612,238.48809 c 6.48892,-1.80187 15.27086,-9.58088 18.94373,-16.78028 3.43723,-6.73754 3.0098,-20.70371 -0.87963,-28.74136 -9.6667,-19.97662 -42.17482,-20.77288 -53.57943,-1.31239 -15.10346,25.7721 6.895,54.78145 35.51533,46.83403 z m -140.47518,-7.9632 c 11.01749,-5.00389 14.99152,-14.80258 10.30255,-25.40278 -3.75204,-8.48212 -9.61997,-11.96667 -18.98564,-11.27426 -5.6427,0.41718 -8.09743,1.38472 -11.30169,4.45459 -10.34096,9.90727 -7.28084,26.14703 6.06946,32.21001 6.89499,3.13132 7.04792,3.13146 13.91532,0.0124 z"
       id="path70"
       transform="scale(0.26458333)" />
    <path
       style="fill:#65c9ff;fill-opacity:1;stroke:#3fbbff;stroke-width:0;stroke-linejoin:round;stroke-dasharray:none;stroke-opacity:0.8;paint-order:normal"
       d="m 455.29727,65.091233 c 0,-2.337131 3.10498,-8.349982 4.31186,-8.349982 1.97012,0 12.09524,4.705148 12.09524,5.620665 0,0.82553 -4.14208,1.956357 -12.64714,3.452788 -2.06798,0.363852 -3.75996,0.03829 -3.75996,-0.723471 z"
       id="path71"
       transform="scale(0.26458333)" />
    <path
       style="fill:#65c9ff;fill-opacity:1;stroke:#3fbbff;stroke-width:0;stroke-linejoin:round;stroke-dasharray:none;stroke-opacity:0.8;paint-order:normal"
       d="m 447.12165,52.297659 c -7.0149,-3.584437 -10.69673,-8.125443 -12.28004,-15.145667 -4.31112,-19.114909 16.45361,-34.7456549 33.40419,-25.145163 8.11983,4.598923 11.66213,10.711389 11.66213,20.123759 0,5.813168 -0.78618,8.982178 -3.08737,12.444952 -3.56561,5.365424 -13.36276,10.798452 -19.47241,10.798452 -2.31329,0 -6.91522,-1.38435 -10.2265,-3.076333 z"
       id="path72"
       transform="scale(0.26458333)" />
    <path
       style="fill:#65c9ff;fill-opacity:1;stroke:#3fbbff;stroke-width:0;stroke-linejoin:round;stroke-dasharray:none;stroke-opacity:0.8;paint-order:normal"
       d="m 471.36391,57.287602 -3.75861,-1.999527 4.8539,-4.26178 c 6.55639,-5.756586 8.81599,-10.599688 8.81599,-18.895707 0,-8.286972 -2.25958,-13.139105 -8.78811,-18.871227 -15.3335,-13.46299127 -39.06596,-2.004469 -39.06596,18.861852 0,5.947407 -0.36079,6.999783 -2.16271,6.308322 -1.18949,-0.456451 -3.03529,-0.829911 -4.10178,-0.829911 -3.40218,0 -2.43149,-12.147514 1.62043,-20.278663 7.24878,-14.5464037 23.64449,-21.3098858 38.74397,-15.9824799 8.58496,3.0289504 13.39793,7.025076 17.88611,14.8505379 3.34585,5.833733 4.04816,8.602639 4.05877,16.002052 0.011,7.691933 -0.61079,9.976672 -4.43076,16.279787 -5.83522,9.628364 -8.68766,11.467936 -13.67124,8.816744 z"
       id="path73"
       transform="scale(0.26458333)" />
    <path
       style="fill:#65c9ff;fill-opacity:1;stroke:#3fbbff;stroke-width:0;stroke-linejoin:round;stroke-dasharray:none;stroke-opacity:0.8;paint-order:normal"
       d="m 471.36391,57.287602 -3.75861,-1.999527 4.8539,-4.26178 c 6.60812,-5.802005 8.81692,-10.607637 8.81088,-19.169624 -0.006,-8.540481 -2.89091,-14.031489 -10.36831,-19.734785 -4.38512,-3.3446925 -6.38523,-3.9183317 -13.66209,-3.9183317 -7.4639,0 -9.17881,0.5225975 -13.77902,4.1989917 -6.80658,5.439673 -10.03477,11.945748 -10.03741,20.229321 -0.002,6.232753 -0.19686,6.60176 -3.07846,5.829521 -1.69199,-0.453433 -3.61173,-0.832826 -4.26611,-0.843094 -0.65438,-0.01027 -0.9262,-3.66263 -0.60404,-8.116359 C 426.24537,18.846663 431.75131,9.775558 440.86997,4.1379213 446.68769,0.54110344 448.84249,0 457.34815,0 c 8.50906,0 10.66287,0.5413587 16.51433,4.1508763 4.53415,2.7969173 8.17852,6.5680287 11.17267,11.5612187 3.81382,6.360108 4.44359,8.687028 4.44359,16.418493 0,7.74751 -0.62185,10.034239 -4.44359,16.34027 -5.83522,9.628364 -8.68766,11.467936 -13.67124,8.816744 z"
       id="path74"
       transform="scale(0.26458333)" />
    <path
       style="fill:#65c9ff;fill-opacity:1;stroke:#3fbbff;stroke-width:0;stroke-linejoin:round;stroke-dasharray:none;stroke-opacity:0.8;paint-order:normal"
       d="m 471.19475,57.168778 -3.90829,-2.047762 5.11333,-4.214843 c 14.22359,-11.72428 11.36183,-33.028684 -5.48082,-40.80207 -6.93649,-3.2013938 -12.20014,-3.1927905 -19.30035,0.03155 -8.49849,3.859323 -13.23223,10.942838 -13.95071,20.875687 -0.54653,7.555631 -0.81501,8.124353 -3.49572,7.404916 -1.59706,-0.428609 -3.36518,-0.78769 -3.92918,-0.797958 -0.56399,-0.01027 -1.01107,-3.248819 -0.99351,-7.19678 0.0844,-18.961455 18.61968,-33.7382579 38.17538,-30.43434354 C 483.45247,3.370813 495.76497,27.938524 486.58492,46.199466 481.02695,57.255385 476.93137,60.1745 471.19475,57.168782 Z"
       id="path75"
       transform="scale(0.26458333)" />
    <path
       style="fill:#65c9ff;fill-opacity:1;stroke:#3fbbff;stroke-width:0;stroke-linejoin:round;stroke-dasharray:none;stroke-opacity:0.8;paint-order:normal"
       d=""
       id="path76"
       transform="scale(0.26458333)" />
    <path
       style="fill:#65c9ff;fill-opacity:1;stroke:#3fbbff;stroke-width:0;stroke-linejoin:round;stroke-dasharray:none;stroke-opacity:0.8;paint-order:normal"
       d="m 453.92115,53.995442 c -15.62084,-4.290979 -23.09769,-18.303693 -16.58158,-31.07632 4.34831,-8.523381 10.12268,-11.98105 20.00858,-11.98105 9.41074,0 15.59897,3.403698 19.33963,10.637329 2.89289,5.594228 2.77117,17.453476 -0.22608,22.02786 -4.408,6.727466 -16.15896,12.145174 -22.54055,10.392181 z"
       id="path77"
       transform="scale(0.26458333)" />
    <path
       style="fill:#65c9ff;fill-opacity:1;stroke:#3fbbff;stroke-width:0;stroke-linejoin:round;stroke-dasharray:none;stroke-opacity:0.8;paint-order:normal"
       d="m 471.24244,57.193764 -3.8606,-2.022773 5.2376,-4.799793 c 3.11597,-2.855511 3.63984,-3.645162 1.29325,-1.949388 -2.16939,1.567723 -4.78427,2.850405 -5.81085,2.850405 -1.02658,0 -1.8665,0.839118 -1.8665,1.864707 0,1.398122 -1.74164,1.735647 -6.96046,1.348917 -3.82824,-0.283684 -8.05421,-1.101156 -9.39104,-1.816601 -1.33682,-0.715447 -2.81912,-0.912282 -3.29399,-0.437413 -0.47487,0.474871 -0.8634,0.217349 -0.8634,-0.572269 0,-0.789618 -1.14118,-1.734094 -2.53595,-2.098837 -1.39477,-0.364741 -3.70202,-3.193006 -5.12722,-6.285035 -1.5968,-3.464323 -3.28887,-5.370374 -4.40899,-4.966554 -0.99975,0.360422 -3.307,0.28153 -5.12722,-0.175318 -2.92247,-0.733491 -3.3095,-1.593259 -3.3095,-7.35173 0,-20.365283 20.44637,-35.6500364 40.46523,-30.24991948 19.21417,5.18304888 29.71771,28.13135348 20.90212,45.66729948 -5.54294,11.026002 -9.65629,13.973599 -15.34248,10.994302 z m 9.62543,-20.709244 c 1.182,-8.812523 -0.60577,-14.805836 -6.15088,-20.620158 -11.34738,-11.8982808 -29.56545,-10.1125054 -37.62546,3.68813 -3.69195,6.321494 -2.09774,6.833363 1.91184,0.613852 4.54185,-7.045158 11.08411,-10.1951203 19.83733,-9.551271 8.05085,0.592185 14.5421,4.569197 17.82747,10.922413 2.28963,4.427647 2.89277,14.690615 1.19296,20.298966 -0.76201,2.514156 -0.61357,2.921585 0.63377,1.739576 0.89585,-0.848935 1.96369,-4.040115 2.37297,-7.091508 z m -46.51276,-8.71207 c -0.43646,-1.090708 -0.76044,-0.766726 -0.82605,0.826052 -0.0594,1.441318 0.26378,2.248856 0.71811,1.794528 0.45433,-0.454329 0.50291,-1.63359 0.10794,-2.62058 z"
       id="path78"
       transform="scale(0.26458333)" />
    <path
       style="fill:#65c9ff;fill-opacity:1;stroke:#3fbbff;stroke-width:0;stroke-linejoin:round;stroke-dasharray:none;stroke-opacity:0.8;paint-order:normal"
       d="m 418.38127,144.83105 c 0,-0.8997 33.96291,-73.287134 34.75814,-74.082364 0.28908,-0.289084 3.02179,0.747847 6.07267,2.304292 3.05088,1.556445 6.49447,2.8299 7.65242,2.8299 1.15795,0 2.10536,0.449034 2.10536,0.997854 0,0.54882 -7.17887,16.238117 -15.95304,34.865108 l -15.95303,33.86725 h -9.34126 c -5.13769,0 -9.34126,-0.35192 -9.34126,-0.78204 z"
       id="path79"
       transform="scale(0.26458333)" />
    <path
       style="fill:#65c9ff;fill-opacity:1;stroke:#3fbbff;stroke-width:0;stroke-linejoin:round;stroke-dasharray:none;stroke-opacity:0.8;paint-order:normal"
       d="m 418.38127,144.71833 c 0,-1.32885 34.49153,-74.304489 35.1196,-74.304489 0.29594,0 2.95012,1.230534 5.89817,2.734519 2.94806,1.503984 6.34897,2.734518 7.5576,2.734518 3.0346,0 2.71186,0.825742 -14.76363,37.773052 l -15.11522,31.95716 h -9.34826 c -5.14154,0 -9.34826,-0.40264 -9.34826,-0.89476 z"
       id="path80"
       transform="scale(0.26458333)" />
    <path
       style="fill:#65c9ff;fill-opacity:1;stroke:#3fbbff;stroke-width:0;stroke-linejoin:round;stroke-dasharray:none;stroke-opacity:0.8;paint-order:normal"
       d="m 418.38127,144.62777 c 0,-2.02026 34.63974,-74.283563 35.41992,-73.890863 0.44685,0.224919 4.03866,1.617793 7.98182,3.095276 5.91702,2.217082 7.02514,3.140784 6.34366,5.287936 -0.45415,1.430881 -7.61366,16.97716 -15.91003,34.547291 l -15.08431,31.94568 h -9.37553 c -5.15654,0 -9.37553,-0.4434 -9.37553,-0.98532 z"
       id="path81"
       transform="scale(0.26458333)" />
    <path
       style="fill:#65c9ff;fill-opacity:1;stroke:#3fbbff;stroke-width:0;stroke-linejoin:round;stroke-dasharray:none;stroke-opacity:0.8;paint-order:normal"
       d="m 419.08658,142.81026 c 0.99385,-3.13134 33.04003,-71.048778 33.95575,-71.964494 0.75848,-0.758482 15.92328,5.518967 15.92562,6.592393 0.001,0.479409 -7.06094,15.861074 -15.69331,34.181481 l -15.69521,33.30982 -9.71094,0.40397 c -9.38045,0.39022 -9.67933,0.30435 -8.78191,-2.52317 z"
       id="path82"
       transform="scale(0.26458333)" />
    <path
       style="fill:#65c9ff;fill-opacity:1;stroke:#3fbbff;stroke-width:0;stroke-linejoin:round;stroke-dasharray:none;stroke-opacity:0.8;paint-order:normal"
       d="m 108.16443,44.133981 c -0.53228,-3.726003 -0.36175,-1.679615 -0.36175,-6.149816 0,-0.602922 0,-1.205847 0,-1.808768 0,-0.241171 0,-0.964679 0,-0.723509 0,1.118135 0.12624,3.129537 -0.72351,3.979294 -0.0853,0.08526 -0.27649,-0.08527 -0.36175,0 -0.34727,0.347271 -0.23041,0.997699 -1.44702,1.808768 -0.71665,-0.03611 -0.17109,0.532847 -0.36175,0.723509 -0.30743,0.307432 -0.73745,0.462642 -1.08526,0.723508 -0.13643,0.10232 -0.36176,0.532286 -0.36176,0.361754 0,-1.36426 1.86732,-1.995662 2.89403,-2.894031 0.56645,-0.495644 1.20412,-1.868196 1.80877,-2.170525 0.10786,-0.05393 0.36176,0.120584 0.36176,0 0,-0.752766 -0.50732,-0.145558 -0.72351,-0.361754 -0.0853,-0.08526 0.0853,-0.276487 0,-0.361754 -0.67018,-0.670174 -1.59179,0.868285 -1.80877,1.085262 -0.0853,0.08527 -0.27649,-0.08527 -0.36176,0 -0.0853,0.08527 0.0853,0.276487 0,0.361754 -0.0853,0.08527 -0.27648,-0.08527 -0.36175,0 -0.14095,0.140954 0,1.226259 0,1.447017 0,0.361752 -0.36175,1.08526 0,1.08526 0.0496,0 -0.0686,-1.895985 0,-2.170522 0.0789,-0.315725 0.93908,-2.316708 0.72351,-2.53228 -0.36139,-0.361384 -0.82583,0.941853 -1.80877,2.170525 -0.13289,0.166114 -0.68104,0.765982 -0.36175,1.085263 0.53983,0.539837 4.34104,-4.045357 4.34104,-5.42631"
       id="path83" />
    <path
       style="fill:#65c9ff;fill-opacity:1;stroke:#3fbbff;stroke-width:0;stroke-linejoin:round;stroke-dasharray:none;stroke-opacity:0.8;paint-order:normal"
       d="m 111.78197,40.878196 c -1.00185,-1.92215 -1.01948,-4.176617 -0.36175,-6.149816 0.1447,-0.434105 -0.1447,-1.012913 0,-1.447017 0.0381,-0.114395 0.27648,0.08527 0.36175,0 0.0853,-0.08526 -0.0448,-0.249793 0,-0.361754 0.83905,-2.09763 1.93787,-4.237488 2.89403,-6.149816 0.33151,-0.663009 0.91295,-4.53049 1.08527,-4.702802 0.25254,-0.252546 2.90191,-1.077382 3.25578,-0.723508 0.22077,0.220771 -0.0931,5.97436 -0.36175,6.511572 -0.14225,0.284488 -0.55719,1.280697 -0.72351,1.447014 -0.0853,0.08527 -0.24117,0 -0.36176,0 -0.12058,0.241171 -0.17109,0.532847 -0.36175,0.723509 -0.0853,0.08527 -0.30783,-0.107855 -0.36175,0 -0.10786,0.215709 0.0763,0.494715 0,0.723508 -0.18768,0.56302 -1.30389,0.874501 -1.44702,1.447017 -0.0877,0.350951 0.1144,0.742072 0,1.08526 -0.0381,0.114398 -0.27649,-0.08526 -0.36175,0 -0.66411,0.664112 -0.87845,1.774187 -1.44702,2.532279 -0.12058,0.120584 -0.24117,0.241168 -0.36175,0.361755 -0.12059,0 -0.27649,-0.08527 -0.36176,0 -0.3379,0.337904 -0.3856,1.470861 -0.7235,1.808768 -0.27345,0.273442 -0.72351,0.156932 -0.72351,0.723508"
       id="path84" />
    <path
       style="fill:#65c9ff;fill-opacity:1;stroke:#3fbbff;stroke-width:0;stroke-linejoin:round;stroke-dasharray:none;stroke-opacity:0.8;paint-order:normal"
       d="M 105.63215,48.475029 105.2704,36.537148"
       id="path85" />
    <path
       style="fill:#65c9ff;fill-opacity:1;stroke:#3fbbff;stroke-width:0;stroke-linejoin:round;stroke-dasharray:none;stroke-opacity:0.8;paint-order:normal"
       d="m 111.05846,29.663824 2.89403,-13.74665"
       id="path86" />
    <path
       style="fill:#65c9ff;fill-opacity:1;stroke:#3fbbff;stroke-width:0;stroke-linejoin:round;stroke-dasharray:none;stroke-opacity:0.8;paint-order:normal"
       d="M 119.37881,18.449452 114.676,15.917174"
       id="path87" />
    <path
       style="fill:#65c9ff;fill-opacity:1;stroke:#3fbbff;stroke-width:0;stroke-linejoin:round;stroke-dasharray:none;stroke-opacity:0.8;paint-order:normal"
       d="m 103.46163,44.495735 8.32034,-26.046283 3.61754,-2.894032 5.42631,1.447016 -1.80877,7.235079 z"
       id="path88" />
    <path
       style="fill:#65c9ff;fill-opacity:1;stroke:#3fbbff;stroke-width:0;stroke-linejoin:round;stroke-dasharray:none;stroke-opacity:0.8;paint-order:normal"
       d="m 105.99391,48.113275 -2.17052,-13.746649 6.87332,-4.341048 2.89403,7.235079 z"
       id="path89" />
    <path
       style="fill:#65c9ff;fill-opacity:1;stroke:#3fbbff;stroke-width:0;stroke-linejoin:round;stroke-dasharray:none;stroke-opacity:0.8;paint-order:normal"
       d="m 116.84653,17.002436 -2.17053,-9.405603 5.06456,-6.1498172 6.14982,0.7235079 1.80877,2.5322778 1.08526,4.7028012 -2.53228,5.4263093 -6.51157,2.894032 z"
       id="path90" />
    <path
       style="fill:#65c9ff;fill-opacity:1;stroke:#3fbbff;stroke-width:0;stroke-linejoin:round;stroke-dasharray:none;stroke-opacity:0.8;paint-order:normal"
       d="m 115.76127,25.322777 -2.53228,-17.725944 1.08526,-4.7028015 4.7028,-1.0852617 h 2.53228 z"
       id="path91" />
    <path
       style="fill:#65c9ff;fill-opacity:1;stroke:#3fbbff;stroke-width:0;stroke-linejoin:round;stroke-dasharray:none;stroke-opacity:0.8;paint-order:normal"
       d="m 280.28811,319.93862 v -33.49785 h 142.19494 142.19494 v 33.49785 33.49785 H 422.48305 280.28811 Z"
       id="path92"
       transform="scale(0.26458333)" />
    <path
       style="fill:#65c9ff;fill-opacity:1;stroke:#3fbbff;stroke-width:0;stroke-linejoin:round;stroke-dasharray:none;stroke-opacity:0.8;paint-order:normal"
       d="m 328.14217,408.12683 v -30.0797 h 94.34088 94.34087 v 30.0797 30.0797 h -94.34087 -94.34088 z"
       id="path93"
       transform="scale(0.26458333)" />
    <path
       style="fill:#65c9ff;fill-opacity:1;stroke:#3fbbff;stroke-width:0;stroke-linejoin:round;stroke-dasharray:none;stroke-opacity:0.8;paint-order:normal"
       d="m 276.45454,358.4986 -4.36999,-4.50869 v -34.18999 -34.18999 l 4.50869,-4.36998 4.50868,-4.36999 h 141.51982 141.51983 l 4.36998,4.50868 4.36999,4.50869 v 34.18998 34.18999 l -4.50868,4.36999 -4.50868,4.36999 H 422.34435 280.82453 Z m 217.46779,-4.72005 c -39.2916,-0.20156 -103.58696,-0.20156 -142.87857,0 -39.2916,0.20156 -7.14393,0.36647 71.43929,0.36647 78.58321,0 110.73089,-0.16491 71.43928,-0.36647 z m 0,-68.36296 c -39.2916,-0.20155 -103.58696,-0.20155 -142.87857,0 -39.2916,0.20156 -7.14393,0.36648 71.43929,0.36648 78.58321,0 110.73089,-0.16492 71.43928,-0.36648 z"
       id="path94"
       transform="scale(0.26458333)" />
    <path
       style="fill:#65c9ff;fill-opacity:1;stroke:#3fbbff;stroke-width:0;stroke-linejoin:round;stroke-dasharray:none;stroke-opacity:0.8;paint-order:normal"
       d="m 324.30861,443.26866 -4.36999,-4.50869 v -30.77184 -30.77184 l 4.50868,-4.36999 4.50869,-4.36998 h 93.66575 93.66577 l 4.36998,4.50868 4.36999,4.50868 v 30.77184 30.77184 l -4.50869,4.36999 -4.50867,4.36999 H 422.34435 328.6786 Z m 145.68669,-4.71973 c -26.13174,-0.20781 -68.89277,-0.20781 -95.0245,0 -26.13174,0.20781 -4.75123,0.37783 47.51225,0.37783 52.26348,0 73.64399,-0.17002 47.51225,-0.37783 z m 0,-61.52666 c -26.13174,-0.20781 -68.89277,-0.20781 -95.0245,0 -26.13174,0.20781 -4.75123,0.37784 47.51225,0.37784 52.26348,0 73.64399,-0.17003 47.51225,-0.37784 z"
       id="path95"
       transform="scale(0.26458333)" />
    <rect
       style="fill:#ffffff;fill-opacity:1;stroke:#65c9ff;stroke-width:2;stroke-linejoin:round;stroke-dasharray:none;stroke-opacity:1;paint-order:normal"
       id="rect95"
       width="6.8733253"
       height="32.919609"
       x="183.40924"
       y="124.44337" />
    <circle
       style="fill:#ffffff;fill-opacity:1;stroke:#65c9ff;stroke-width:2;stroke-linejoin:round;stroke-dasharray:none;stroke-opacity:1;paint-order:normal"
       id="path96"
       cx="186.66504"
       cy="120.1023"
       r="4.7028017" />
    <path
       style="fill:#ffffff;fill-opacity:1;stroke:#65c9ff;stroke-width:2;stroke-linejoin:round;stroke-dasharray:none;stroke-opacity:1;paint-order:normal"
       d="m 181.23873,117.57004 -17.72594,-6.14982 3.61754,8.32034 13.38489,1.44702 z"
       id="path97" />
    <path
       style="fill:#ffffff;fill-opacity:1;stroke:#65c9ff;stroke-width:2;stroke-linejoin:round;stroke-dasharray:none;stroke-opacity:1;paint-order:normal"
       d="m 191.53251,122.77195 17.65524,6.34995 -3.52319,-8.36073 -13.36766,-1.59834 z"
       id="path97-1" />
    <path
       style="fill:#ffffff;fill-opacity:1;stroke:#65c9ff;stroke-width:2;stroke-linejoin:round;stroke-dasharray:none;stroke-opacity:1;paint-order:normal"
       d="m 189.90535,115.61343 9.31234,-16.288328 -8.84464,2.021608 -3.88984,12.88869 z"
       id="path97-0" />
    <path
       style="fill:#ffffff;fill-opacity:1;stroke:#65c9ff;stroke-width:2;stroke-linejoin:round;stroke-dasharray:none;stroke-opacity:1;paint-order:normal"
       d="m 183.41717,125.20089 -7.90801,17.01447 8.64306,-2.75903 2.79095,-13.1704 z"
       id="path97-09" />
    <path
       sodipodi:type="star"
       style="fill:#ffffff;fill-opacity:1;stroke:#65c9ff;stroke-width:0;stroke-linejoin:round;stroke-dasharray:none;stroke-opacity:1;paint-order:normal"
       id="path99"
       inkscape:flatsided="false"
       sodipodi:sides="4"
       sodipodi:cx="97.673571"
       sodipodi:cy="91.161996"
       sodipodi:r1="7.4577489"
       sodipodi:r2="1.6290311"
       sodipodi:arg1="1.3258177"
       sodipodi:arg2="2.1112158"
       inkscape:rounded="0"
       inkscape:randomized="0"
       d="m 99.482338,98.397074 -2.646899,-5.838196 -6.396949,0.411886 5.838196,-2.646899 -0.411887,-6.396949 2.646899,5.838196 6.396952,-0.411887 -5.838199,2.646899 z"
       inkscape:transform-center-x="1.2624358e-06"
       inkscape:transform-center-y="-1.0026566e-06" />
    <path
       sodipodi:type="star"
       style="fill:#ffffff;fill-opacity:1;stroke:#65c9ff;stroke-width:0;stroke-linejoin:round;stroke-dasharray:none;stroke-opacity:1;paint-order:normal"
       id="path100"
       inkscape:flatsided="false"
       sodipodi:sides="4"
       sodipodi:cx="96.950058"
       sodipodi:cy="77.7771"
       sodipodi:r1="6.1604476"
       sodipodi:r2="1.3456554"
       sodipodi:arg1="0.8685394"
       sodipodi:arg2="1.6539376"
       inkscape:rounded="0"
       inkscape:randomized="0"
       d="m 100.92935,82.479901 -4.091043,-3.361794 -4.59105,2.638286 3.361794,-4.091044 -2.638286,-4.591051 4.091044,3.361794 4.591051,-2.638286 -3.361795,4.091044 z"
       inkscape:transform-center-x="1.2125863e-06"
       transform="rotate(21.501435,96.950059,77.7771)" />
    <path
       sodipodi:type="star"
       style="fill:#ffffff;fill-opacity:1;stroke:#65c9ff;stroke-width:0;stroke-linejoin:round;stroke-dasharray:none;stroke-opacity:1;paint-order:normal"
       id="path101"
       inkscape:flatsided="false"
       sodipodi:sides="4"
       sodipodi:cx="85.373932"
       sodipodi:cy="85.373929"
       sodipodi:r1="13.865138"
       sodipodi:r2="3.0286272"
       sodipodi:arg1="2.8797933"
       sodipodi:arg2="3.6651914"
       inkscape:rounded="0"
       inkscape:randomized="0"
       d="M 71.981237,88.962493 82.751064,83.859618 81.785371,71.981237 86.888245,82.751064 98.766627,81.785371 87.9968,86.888245 88.962493,98.766627 83.859618,87.9968 Z"
       inkscape:transform-center-x="1.2487632e-06" />
  </g>
</svg>
